{"glyphs":{"0":{"ha":585,"x_min":18,"x_max":563,"o":"m 56 496 q 196 881 112 757 q 401 1006 280 1006 q 553 882 523 1006 q 563 780 563 840 q 526 496 563 668 q 387 111 471 236 q 180 -14 302 -14 q 28 106 57 -14 q 18 203 18 145 q 56 496 18 316 m 457 773 q 379 911 457 911 q 260 814 311 911 q 167 514 210 718 q 124 212 124 311 q 203 81 124 81 q 319 176 267 81 q 414 473 372 272 q 457 773 457 675 z "},"1":{"ha":585,"x_min":153,"x_max":501,"o":"m 291 0 l 187 0 l 332 680 q 381 881 350 766 q 196 727 351 849 l 153 793 l 410 991 l 501 991 l 291 0 z "},"2":{"ha":585,"x_min":-57,"x_max":564,"o":"m 186 845 l 144 915 q 262 985 209 965 q 379 1006 315 1006 q 533 939 486 1006 q 564 831 564 896 q 555 760 564 798 q 502 605 538 677 q 399 452 465 532 q 83 100 345 383 l 82 95 l 436 95 l 416 0 l -57 0 l -39 81 l 213 366 q 380 577 332 500 q 450 756 429 654 q 455 806 455 778 q 439 864 455 833 q 353 910 414 910 q 271 895 309 910 q 186 845 233 880 z "},"3":{"ha":585,"x_min":-47,"x_max":566,"o":"m 379 1006 q 533 941 484 1006 q 566 833 566 897 q 559 770 566 804 q 484 612 540 676 q 341 520 428 548 l 340 515 q 457 435 423 498 q 479 343 479 396 q 471 273 479 311 q 354 64 443 142 q 145 -14 266 -14 q -47 26 24 -14 l -26 130 q 154 77 51 77 q 290 129 235 77 q 366 277 345 180 q 372 330 372 305 q 343 416 372 382 q 203 468 302 468 l 151 468 l 170 555 l 224 555 q 371 609 309 555 q 451 753 432 663 q 457 814 457 783 q 442 871 457 846 q 353 913 416 913 q 268 898 308 913 q 178 842 227 882 l 136 912 q 379 1006 252 1006 z "},"4":{"ha":585,"x_min":-35,"x_max":568,"o":"m 421 311 l 526 311 l 506 219 l 401 219 l 355 0 l 254 0 l 301 219 l -35 219 l -16 307 l 448 999 l 568 999 l 421 311 m 446 868 l 441 868 q 326 681 405 806 l 81 311 l 321 311 l 390 636 q 446 868 417 766 z "},"5":{"ha":585,"x_min":-34,"x_max":576,"o":"m -11 134 q 125 85 50 85 q 286 145 216 85 q 378 313 357 205 q 387 393 387 353 q 368 464 387 433 q 256 514 336 514 q 117 493 194 514 l 85 536 l 212 991 l 576 991 l 555 895 l 279 895 l 194 590 q 307 602 250 602 q 406 579 363 602 q 468 519 448 557 q 496 399 496 468 q 484 308 496 361 q 444 196 472 254 q 373 91 415 138 q 270 16 330 43 q 138 -14 210 -12 q -34 28 24 -14 l -11 134 z "},"6":{"ha":585,"x_min":21,"x_max":578,"o":"m 350 621 q 481 538 445 621 q 501 436 501 494 q 487 312 501 378 q 375 74 455 161 q 189 -14 294 -14 q 37 98 73 -14 q 21 225 21 147 q 46 422 21 303 q 219 862 109 720 q 489 1005 328 1005 q 578 991 547 1005 l 559 897 q 470 911 521 911 q 289 813 366 911 q 163 510 213 715 l 170 510 q 251 592 204 564 q 350 621 298 621 m 307 530 q 201 480 248 530 q 138 354 154 429 q 123 230 123 278 q 132 151 123 181 q 211 80 152 80 q 314 138 270 80 q 382 309 358 195 q 395 406 395 366 q 307 530 395 530 z "},"7":{"ha":585,"x_min":24,"x_max":638,"o":"m 622 913 l 133 0 l 24 0 l 512 895 l 129 895 l 149 991 l 638 991 l 622 913 z "},"8":{"ha":585,"x_min":-13,"x_max":583,"o":"m 128 770 q 227 940 151 875 q 404 1005 304 1005 q 551 942 503 1005 q 583 836 583 899 q 576 772 583 806 q 366 519 542 615 q 475 393 447 454 q 491 319 491 356 q 484 249 491 281 q 378 60 460 134 q 185 -14 296 -14 q 23 56 75 -14 q -13 172 -13 103 q -5 241 -13 205 q 65 396 14 330 q 214 517 117 461 q 121 709 121 600 q 128 770 121 739 m 463 878 q 382 917 439 917 q 286 877 326 917 q 231 766 246 838 q 225 709 225 736 q 235 656 225 682 q 307 566 251 612 q 418 655 379 606 q 470 766 456 703 q 476 824 476 795 q 463 878 476 854 m 93 192 q 111 121 93 150 q 204 75 140 75 q 315 123 268 75 q 380 252 363 171 q 385 292 385 273 q 298 454 385 381 l 276 472 q 156 375 197 427 q 99 244 116 323 q 93 192 93 216 z "},"9":{"ha":585,"x_min":-7,"x_max":559,"o":"m 228 369 q 96 452 133 369 q 77 555 77 498 q 91 678 77 613 q 205 918 123 831 q 397 1005 286 1005 q 543 894 507 1005 q 559 767 559 844 q 534 574 559 690 q 359 134 471 281 q 87 -14 246 -14 q -7 0 29 -14 l 13 94 q 104 79 52 79 q 286 180 208 79 q 414 480 365 282 l 408 480 q 327 398 374 427 q 228 369 281 369 m 184 579 q 272 460 184 460 q 378 514 330 460 q 441 642 426 568 q 457 763 457 717 q 448 841 457 810 q 370 910 428 910 q 267 853 312 910 q 197 682 221 795 q 184 579 184 623 z "},"\r":{"ha":361,"x_min":0,"x_max":0,"o":""}," ":{"ha":288,"x_min":0,"x_max":0,"o":""},"!":{"ha":329,"x_min":-1,"x_max":336,"o":"m 155 272 l 81 272 l 208 991 l 336 991 l 155 272 m 94 157 q 151 102 151 157 q 148 72 151 89 q 115 8 139 30 q 57 -14 90 -14 q -1 41 -1 -14 q 3 72 -1 55 q 94 157 20 157 z "},"\"":{"ha":516,"x_min":74,"x_max":467,"o":"m 142 633 l 74 633 l 125 991 l 240 991 l 142 633 m 368 633 l 300 633 l 352 991 l 467 991 l 368 633 z "},"#":{"ha":644,"x_min":-15,"x_max":663,"o":"m 545 708 l 663 708 l 645 626 l 516 626 l 437 389 l 561 389 l 543 304 l 408 304 l 307 0 l 227 0 l 330 304 l 183 304 l 81 0 l 3 0 l 104 304 l -15 304 l 3 389 l 132 389 l 212 626 l 86 626 l 104 708 l 241 708 l 335 991 l 414 991 l 319 708 l 467 708 l 563 991 l 640 991 l 545 708 m 290 626 l 212 389 l 357 389 l 438 626 l 290 626 z "},"$":{"ha":585,"x_min":-20,"x_max":594,"o":"m 594 890 l 541 803 q 398 845 469 841 l 334 543 q 469 444 433 498 q 493 359 493 409 q 487 304 493 333 q 400 152 467 212 q 235 79 332 92 l 201 -81 l 138 -81 l 172 75 q -20 118 49 77 l 2 220 q 89 181 38 195 q 191 165 140 167 l 254 466 q 220 484 241 471 q 117 578 141 528 q 104 642 104 608 q 111 710 104 675 q 197 861 130 800 q 354 935 264 922 l 380 1055 l 443 1055 l 418 937 q 594 890 515 932 m 252 797 q 235 780 252 797 q 208 713 218 762 q 203 667 203 689 q 212 627 203 644 q 277 570 228 595 l 334 842 q 252 797 286 832 m 342 216 q 393 340 393 264 q 312 439 393 398 l 255 171 q 342 216 307 182 z "},"%":{"ha":897,"x_min":80,"x_max":817,"o":"m 189 383 q 80 541 80 383 q 99 695 80 606 q 188 927 132 848 q 321 1006 244 1006 q 433 849 433 1006 q 414 696 433 785 q 325 464 383 545 q 189 383 266 383 m 210 0 l 123 0 l 685 991 l 772 991 l 210 0 m 166 540 q 208 465 166 465 q 272 520 243 465 q 323 683 300 576 q 346 846 346 790 q 304 927 346 927 q 241 871 269 927 q 190 706 213 815 q 166 540 166 596 m 572 -13 q 464 144 464 -13 q 483 298 464 209 q 572 530 515 452 q 705 609 628 609 q 817 452 817 609 q 798 299 817 388 q 707 67 766 148 q 572 -13 648 -13 m 550 142 q 591 68 550 68 q 656 124 628 68 q 707 286 684 180 q 729 448 729 393 q 687 530 729 530 q 624 474 652 530 q 573 309 597 418 q 550 142 550 199 z "},"&":{"ha":645,"x_min":-20,"x_max":602,"o":"m 205 538 q 168 709 168 646 q 177 790 168 747 q 255 947 198 889 q 388 1006 313 1006 q 496 951 463 1006 q 517 867 517 916 q 509 801 517 837 q 447 649 490 713 q 321 523 404 585 q 420 267 326 513 q 507 465 476 346 l 602 465 q 542 312 582 392 q 460 178 502 232 l 536 0 l 420 0 q 398 56 412 20 q 381 103 385 93 q 265 13 320 39 q 144 -14 210 -14 q 4 56 45 -14 q -20 159 -20 97 q -9 249 -20 199 q 58 404 9 338 q 205 538 106 469 m 368 914 q 313 883 336 914 q 279 805 289 852 q 269 731 269 758 q 292 595 269 648 q 370 682 342 634 q 410 795 397 730 q 417 851 417 827 q 368 914 417 914 m 95 254 q 87 185 87 218 q 99 127 87 153 q 174 82 121 82 q 347 184 259 82 l 237 468 q 140 370 172 417 q 95 254 109 322 z "},"'":{"ha":290,"x_min":74,"x_max":240,"o":"m 142 633 l 74 633 l 125 991 l 240 991 l 142 633 z "},"(":{"ha":406,"x_min":38,"x_max":484,"o":"m 137 -220 q 38 159 38 -65 q 62 380 38 265 q 187 715 100 555 q 395 991 274 875 l 484 991 q 282 702 363 859 q 143 157 143 431 q 224 -220 143 -60 l 137 -220 z "},")":{"ha":406,"x_min":-77,"x_max":365,"o":"m 268 991 q 365 605 365 833 q 340 380 365 496 q 218 50 303 205 q 10 -220 132 -106 l -77 -220 q 119 62 37 -96 q 262 609 262 334 q 179 991 262 819 l 268 991 z "},"*":{"ha":551,"x_min":52,"x_max":502,"o":"m 318 873 l 502 918 l 494 819 l 326 812 l 405 654 l 307 609 l 264 774 l 149 608 l 71 654 l 214 812 l 52 819 l 89 918 l 251 873 l 269 1055 l 378 1055 l 318 873 z "},"+":{"ha":578,"x_min":42,"x_max":536,"o":"m 338 532 l 536 532 l 518 448 l 321 448 l 261 170 l 180 170 l 239 448 l 42 448 l 60 532 l 257 532 l 317 812 l 398 812 l 338 532 z "},",":{"ha":315,"x_min":-83,"x_max":172,"o":"m 166 146 l 172 131 q -9 -179 97 -21 l -83 -179 q 54 146 3 -6 l 166 146 z "},"-":{"ha":379,"x_min":30,"x_max":349,"o":"m 329 325 l 30 325 l 50 423 l 349 423 l 329 325 z "},".":{"ha":315,"x_min":-9,"x_max":142,"o":"m 84 157 q 142 102 142 157 q 138 72 142 89 q 105 8 130 29 q 47 -14 81 -14 q -9 41 -9 -14 q -6 72 -9 55 q 84 157 12 157 z "},"/":{"ha":509,"x_min":-79,"x_max":594,"o":"m 25 0 l -79 0 l 493 991 l 594 991 l 25 0 z "},":":{"ha":315,"x_min":19,"x_max":296,"o":"m 238 748 q 296 693 296 748 q 293 663 296 680 q 260 600 284 621 q 202 578 236 578 q 145 633 145 578 q 149 663 145 646 q 238 748 166 748 m 113 157 q 170 102 170 157 q 167 72 170 89 q 134 8 158 29 q 77 -14 111 -14 q 19 41 19 -14 q 22 72 19 55 q 113 157 41 157 z "},";":{"ha":315,"x_min":-90,"x_max":276,"o":"m 218 748 q 276 693 276 748 q 273 663 276 680 q 239 600 264 621 q 182 578 215 578 q 123 631 123 578 q 127 663 123 646 q 218 748 145 748 m 159 146 l 165 130 q -16 -179 92 -18 l -90 -179 q 47 146 -2 4 l 159 146 z "},"<":{"ha":578,"x_min":44,"x_max":594,"o":"m 574 706 l 146 490 l 481 274 l 461 177 l 44 458 l 58 524 l 594 802 l 574 706 z "},"=":{"ha":578,"x_min":12,"x_max":566,"o":"m 548 589 l 72 589 l 90 672 l 566 672 l 548 589 m 488 306 l 12 306 l 30 389 l 506 389 l 488 306 z "},">":{"ha":578,"x_min":-17,"x_max":534,"o":"m 534 524 l 520 458 l -17 177 l 3 274 l 432 490 l 96 706 l 116 802 l 534 524 z "},"?":{"ha":437,"x_min":16,"x_max":470,"o":"m 117 948 q 309 1006 210 1006 q 446 945 407 1006 q 470 850 470 907 q 461 772 470 814 q 414 643 445 693 q 310 516 382 593 q 215 401 237 439 q 180 302 193 363 l 174 272 l 87 272 l 96 311 q 138 435 112 387 q 220 541 163 483 q 320 664 294 620 q 359 771 346 709 q 365 827 365 800 q 353 876 365 854 q 274 912 332 912 q 143 869 217 912 l 117 948 m 109 157 q 167 102 167 157 q 163 71 167 88 q 131 8 155 30 q 73 -13 106 -13 q 16 41 16 -13 q 19 71 16 54 q 109 157 37 157 z "},"@":{"ha":892,"x_min":33,"x_max":862,"o":"m 569 292 q 614 238 569 238 q 753 504 696 238 q 771 668 771 591 q 745 806 771 745 q 576 919 697 919 q 392 853 479 919 q 242 671 305 787 q 147 406 179 555 q 126 223 126 306 q 152 79 126 140 q 332 -40 200 -40 q 526 11 432 -40 l 509 -72 q 311 -119 416 -119 q 71 14 138 -119 q 33 200 33 90 q 56 393 33 286 q 262 837 116 673 q 593 1000 408 1000 q 734 963 675 1000 q 861 704 848 894 q 862 667 862 686 q 842 501 862 590 q 743 243 805 330 q 596 157 680 157 q 507 250 507 157 q 509 281 507 264 l 503 281 q 359 157 447 157 q 267 220 291 157 q 255 296 255 251 q 268 402 255 341 q 372 642 301 557 q 538 726 443 726 q 665 704 604 726 l 583 382 l 575 347 q 569 292 569 315 m 514 651 q 425 586 466 651 q 359 400 385 520 q 347 310 347 346 q 392 238 347 238 q 451 290 423 238 q 509 455 479 342 l 559 645 q 514 651 540 651 z "},"A":{"ha":614,"x_min":-105,"x_max":509,"o":"m 474 992 l 509 0 l 402 0 l 393 323 l 146 323 l 2 0 l -105 0 q 346 992 181 631 l 474 992 m 387 684 l 385 781 q 390 897 385 842 q 287 642 357 798 q 237 532 273 610 q 189 422 202 453 l 393 422 l 387 684 z "},"B":{"ha":644,"x_min":-4,"x_max":634,"o":"m 417 991 q 634 823 634 991 q 626 750 634 789 q 556 597 606 655 q 433 525 506 538 l 432 519 q 541 443 513 500 q 556 369 556 410 q 547 283 556 328 q 439 75 519 151 q 248 0 360 0 l -4 0 l 206 991 l 417 991 m 329 564 q 454 607 409 564 q 518 743 498 651 q 524 793 524 770 q 397 898 524 898 l 288 898 l 217 564 l 329 564 m 250 94 q 440 290 397 94 q 447 351 447 323 q 427 425 447 396 q 317 472 395 472 l 198 472 l 117 94 l 250 94 z "},"C":{"ha":603,"x_min":45,"x_max":669,"o":"m 285 -14 q 76 119 135 -14 q 45 286 45 192 q 67 488 45 380 q 234 868 119 730 q 504 1006 349 1006 q 669 956 599 1006 l 609 867 q 486 910 554 910 q 301 799 383 910 q 178 496 218 688 q 156 318 156 393 q 172 193 156 243 q 314 82 209 82 q 467 117 394 82 l 447 22 q 285 -14 380 -14 z "},"D":{"ha":708,"x_min":-4,"x_max":664,"o":"m 415 991 q 632 867 574 991 q 664 707 664 800 q 641 505 664 614 q 475 127 587 254 q 195 0 363 0 l -4 0 l 206 991 l 415 991 m 553 685 q 391 898 553 898 l 292 898 l 121 94 l 212 94 q 530 500 444 94 q 553 685 553 607 z "},"E":{"ha":553,"x_min":-3,"x_max":595,"o":"m 574 896 l 292 896 l 222 566 l 488 566 l 467 471 l 201 471 l 122 96 l 405 96 l 385 0 l -3 0 l 207 991 l 595 991 l 574 896 z "},"F":{"ha":519,"x_min":-3,"x_max":595,"o":"m 574 896 l 292 896 l 213 524 l 479 524 l 459 428 l 193 428 l 102 0 l -3 0 l 207 991 l 595 991 l 574 896 z "},"G":{"ha":737,"x_min":46,"x_max":751,"o":"m 308 -14 q 80 120 142 -14 q 46 290 46 193 q 70 498 46 387 q 246 871 121 737 q 547 1006 371 1006 q 751 943 662 1006 q 691 854 725 903 q 531 910 612 910 q 312 802 404 910 q 178 496 220 694 q 157 320 157 396 q 177 191 157 244 q 333 82 218 82 q 476 103 412 82 l 543 420 l 402 420 l 422 516 l 668 516 l 566 34 q 308 -14 438 -14 z "},"H":{"ha":726,"x_min":-3,"x_max":730,"o":"m 519 0 l 414 0 l 513 470 l 201 470 l 102 0 l -3 0 l 207 991 l 312 991 l 222 566 l 534 566 l 624 991 l 730 991 l 519 0 z "},"I":{"ha":328,"x_min":7,"x_max":319,"o":"m 109 0 l 7 0 l 218 991 l 319 991 l 109 0 z "},"J":{"ha":301,"x_min":-205,"x_max":335,"o":"m -115 -262 q -117 -262 -117 -262 q -205 -245 -173 -262 l -185 -151 q -105 -164 -150 -164 q -30 -126 -60 -164 q 18 -5 1 -87 l 230 991 l 335 991 l 124 -1 q 35 -194 99 -125 q -115 -262 -29 -262 z "},"K":{"ha":608,"x_min":-4,"x_max":699,"o":"m 699 991 l 364 557 q 502 0 476 102 l 387 0 q 277 471 305 351 l 182 378 l 102 0 l -4 0 l 206 991 l 312 991 l 203 477 q 585 991 247 540 l 699 991 z "},"L":{"ha":507,"x_min":-3,"x_max":394,"o":"m 122 96 l 394 96 l 374 0 l -3 0 l 207 991 l 312 991 l 122 96 z "},"M":{"ha":994,"x_min":-4,"x_max":996,"o":"m 408 269 q 412 178 412 216 q 410 111 412 140 l 415 111 q 486 268 440 175 l 833 991 l 996 991 l 786 0 l 684 0 l 833 702 q 879 882 846 764 l 873 882 l 448 0 l 332 0 l 279 883 l 273 883 q 244 703 257 762 l 95 0 l -4 0 l 206 991 l 366 991 l 408 269 z "},"N":{"ha":782,"x_min":-3,"x_max":786,"o":"m 576 0 l 444 0 l 269 833 l 262 833 q 235 655 255 750 l 96 0 l -3 0 l 207 991 l 339 991 l 514 168 l 519 168 q 550 349 534 272 l 686 991 l 786 991 l 576 0 z "},"O":{"ha":757,"x_min":43,"x_max":713,"o":"m 488 1006 q 688 873 637 1006 q 713 714 713 808 q 687 497 713 620 q 527 119 635 252 q 269 -14 419 -14 q 68 120 119 -14 q 43 280 43 186 q 70 498 43 374 q 488 1006 178 1006 m 151 287 q 290 83 151 83 q 462 187 389 83 q 578 497 535 291 q 606 711 606 624 q 468 909 606 909 q 294 805 368 909 q 178 497 221 700 q 151 287 151 374 z "},"P":{"ha":602,"x_min":-4,"x_max":612,"o":"m 380 991 q 578 920 525 991 q 612 799 612 876 q 601 700 612 755 q 248 393 535 393 l 185 393 l 102 0 l -4 0 l 206 991 l 380 991 m 261 486 q 415 535 361 486 q 494 697 470 585 q 503 780 503 739 q 483 850 503 821 q 357 898 449 898 l 292 898 l 205 486 l 261 486 z "},"Q":{"ha":757,"x_min":66,"x_max":737,"o":"m 293 -14 q 91 120 142 -14 q 66 279 66 185 q 94 498 66 373 q 512 1006 201 1006 q 712 873 661 1006 q 737 714 737 808 q 711 497 737 620 q 598 186 671 309 q 425 16 525 63 l 528 -236 l 401 -236 l 320 -12 q 306 -12 315 -11 q 293 -14 297 -14 m 629 709 q 491 909 629 909 q 201 497 290 909 q 175 287 175 374 q 313 83 175 83 q 486 187 412 83 q 602 497 559 291 q 629 709 629 621 z "},"R":{"ha":625,"x_min":-3,"x_max":614,"o":"m 377 991 q 579 922 524 991 q 614 802 614 878 q 604 711 614 762 q 533 544 583 610 q 399 444 483 478 l 499 0 l 384 0 l 297 418 l 191 418 l 102 0 l -3 0 l 207 991 l 377 991 m 288 511 q 423 560 370 511 q 496 707 475 610 q 504 777 504 746 q 484 851 504 824 q 357 895 450 895 l 292 895 l 210 511 l 288 511 z "},"S":{"ha":557,"x_min":-45,"x_max":593,"o":"m 161 82 q 281 131 229 82 q 349 254 333 180 q 353 298 353 277 q 336 368 353 336 q 249 456 309 414 q 141 550 174 504 q 106 665 106 598 q 116 747 106 702 q 223 933 140 861 q 413 1006 306 1006 q 593 957 520 1006 q 536 865 555 896 q 400 907 467 907 q 284 863 333 907 q 220 749 235 819 q 212 701 212 720 q 214 670 212 682 q 245 607 220 636 q 328 542 271 578 q 446 422 416 488 q 464 342 464 383 q 456 264 464 300 q 344 62 429 137 q 142 -14 259 -14 q -45 26 26 -14 l -22 134 q 63 96 13 111 q 161 82 113 82 z "},"T":{"ha":521,"x_min":97,"x_max":612,"o":"m 592 895 l 397 895 l 208 0 l 102 0 l 292 895 l 97 895 l 117 991 l 612 991 l 592 895 z "},"U":{"ha":718,"x_min":46,"x_max":730,"o":"m 589 332 q 468 74 553 161 q 253 -14 382 -14 q 74 75 123 -14 q 46 193 46 126 q 61 332 46 260 l 201 991 l 307 991 l 165 322 q 153 222 153 267 q 168 144 153 176 q 274 83 197 83 q 404 144 351 83 q 482 323 457 205 l 625 991 l 730 991 l 589 332 z "},"V":{"ha":594,"x_min":105,"x_max":699,"o":"m 212 991 l 222 302 q 212 109 222 213 q 275 277 246 207 l 591 991 l 699 991 l 254 0 l 127 0 l 105 991 l 212 991 z "},"W":{"ha":997,"x_min":105,"x_max":1093,"o":"m 1093 991 l 682 0 l 552 0 l 559 503 l 559 556 q 559 605 559 594 q 560 646 559 615 q 563 702 561 677 q 574 860 566 754 q 553 800 563 825 l 530 736 q 488 630 521 713 q 438 503 455 547 l 234 0 l 105 0 q 113 991 113 989 l 220 991 q 208 425 220 987 q 203 307 205 378 q 195 106 199 161 q 274 325 243 250 l 547 991 l 661 991 l 652 424 q 637 105 650 274 q 726 349 693 271 l 987 991 l 1093 991 z "},"X":{"ha":542,"x_min":-96,"x_max":631,"o":"m 343 510 l 427 0 l 317 0 l 260 422 l 12 0 l -96 0 l 229 523 l 139 991 l 248 991 l 308 608 l 522 991 l 631 991 l 343 510 z "},"Y":{"ha":527,"x_min":105,"x_max":632,"o":"m 293 391 l 210 0 l 105 0 l 187 388 l 105 991 l 216 991 l 269 519 l 521 991 l 632 991 l 293 391 z "},"Z":{"ha":488,"x_min":-70,"x_max":557,"o":"m 539 908 l 66 96 l 376 96 l 355 0 l -70 0 l -52 83 l 418 895 l 126 895 l 146 991 l 557 991 l 539 908 z "},"[":{"ha":438,"x_min":-20,"x_max":523,"o":"m 505 906 l 317 906 l 96 -134 l 283 -134 l 265 -220 l -20 -220 l 237 991 l 523 991 l 505 906 z "},"\\":{"ha":509,"x_min":132,"x_max":384,"o":"m 384 0 l 280 0 l 132 991 l 233 991 l 384 0 z "},"]":{"ha":438,"x_min":-85,"x_max":458,"o":"m 201 -220 l -85 -220 l -66 -134 l 121 -134 l 342 906 l 155 906 l 173 991 l 458 991 l 201 -220 z "},"^":{"ha":616,"x_min":-37,"x_max":541,"o":"m 541 462 l 444 462 l 336 878 l 59 462 l -37 462 l 328 992 l 389 992 l 541 462 z "},"_":{"ha":538,"x_min":-10,"x_max":549,"o":"m 534 -193 l -10 -193 l 5 -125 l 549 -125 l 534 -193 z "},"`":{"ha":761,"x_min":288,"x_max":500,"o":"m 290 1064 l 418 1064 q 451 961 428 1020 q 500 857 473 903 l 496 842 l 433 842 q 347 945 396 878 q 288 1052 300 1011 l 290 1064 z "},"a":{"ha":570,"x_min":3,"x_max":523,"o":"m 192 626 l 169 701 q 369 757 269 757 q 503 695 469 757 q 523 611 523 661 q 511 503 523 561 l 404 0 l 325 0 l 330 103 l 326 103 q 138 -12 245 -12 q 23 45 56 -12 q 3 121 3 79 q 12 205 3 163 q 112 375 35 315 q 309 441 189 436 l 396 446 l 408 504 q 418 581 418 551 q 411 631 418 612 q 340 671 395 671 q 192 626 275 671 m 112 149 q 183 69 112 69 q 294 130 245 69 q 365 298 342 191 l 380 370 q 310 367 358 370 q 182 322 229 363 q 119 204 136 282 q 112 149 112 172 z "},"b":{"ha":633,"x_min":-20,"x_max":563,"o":"m 222 644 q 408 755 304 755 q 547 658 511 755 q 563 542 563 612 q 542 372 563 472 q 426 86 503 185 q 244 -14 349 -14 q 103 96 140 -14 l 96 96 q 60 0 79 52 l -20 0 l 204 1055 l 307 1055 l 241 743 q 230 703 239 736 q 215 644 221 669 l 222 644 m 457 530 q 364 665 457 665 q 243 599 290 665 q 163 379 196 533 l 159 361 q 140 212 140 273 q 241 77 140 77 q 357 150 309 77 q 437 373 405 222 q 457 530 457 467 z "},"c":{"ha":458,"x_min":39,"x_max":507,"o":"m 218 -14 q 39 202 39 -14 q 59 367 39 273 q 181 658 100 559 q 382 756 262 756 q 507 724 460 756 l 456 640 q 372 665 412 665 q 165 368 228 665 q 146 228 146 279 q 155 148 146 176 q 252 78 176 78 q 370 106 302 78 l 351 18 q 218 -14 284 -14 z "},"d":{"ha":633,"x_min":6,"x_max":655,"o":"m 353 101 q 165 -14 273 -14 q 6 196 6 -14 q 27 370 6 270 q 143 656 66 555 q 324 756 220 756 q 410 728 372 756 q 464 648 448 699 l 471 648 q 488 750 482 718 l 553 1055 l 655 1055 l 431 0 l 352 0 q 359 101 354 31 l 353 101 m 112 208 q 204 74 112 74 q 399 333 344 74 l 406 369 q 427 530 427 466 q 327 664 427 664 q 211 590 258 664 q 133 368 164 515 q 112 208 112 273 z "},"e":{"ha":576,"x_min":41,"x_max":544,"o":"m 241 -14 q 68 85 115 -14 q 41 213 41 141 q 58 366 41 286 q 182 655 98 554 q 380 756 265 756 q 522 667 481 756 q 544 557 544 618 q 530 428 544 495 l 514 356 l 161 356 q 146 233 146 286 q 271 75 146 75 q 438 123 348 75 l 419 33 q 241 -14 333 -14 m 430 438 q 442 537 442 496 q 434 608 442 578 q 358 671 414 671 q 180 438 241 671 l 430 438 z "},"f":{"ha":342,"x_min":-6,"x_max":490,"o":"m 392 1063 q 490 1041 447 1063 l 441 956 q 378 972 410 972 q 311 934 336 971 q 267 802 286 897 l 254 742 l 372 742 l 354 656 l 235 656 l 96 0 l -6 0 l 134 656 l 41 656 l 53 711 q 153 747 71 718 l 165 804 q 247 1001 194 939 q 392 1063 300 1063 z "},"g":{"ha":546,"x_min":-60,"x_max":641,"o":"m 527 662 q 542 587 542 632 q 534 504 542 543 q 440 326 510 393 q 281 259 370 259 l 276 259 q 245 262 256 259 q 193 220 212 240 q 167 162 167 193 q 184 129 167 143 q 243 115 201 115 l 310 115 q 450 63 408 115 q 477 -27 477 28 q 470 -90 477 -56 q 353 -268 446 -203 q 128 -334 261 -334 q -27 -282 20 -334 q -60 -188 -60 -245 q -54 -133 -60 -162 q 133 58 -24 5 q 85 100 101 73 q 76 134 76 118 q 110 222 76 186 q 186 282 134 248 q 123 366 139 308 q 115 429 115 395 q 123 501 115 463 q 218 689 149 621 q 385 756 287 756 q 463 741 425 756 q 516 742 472 742 q 641 741 561 742 l 627 676 l 527 662 m 443 582 q 367 681 443 681 q 279 634 316 681 q 222 500 241 587 q 214 430 214 461 q 224 376 214 398 q 294 333 243 333 q 433 505 397 333 q 443 582 443 548 m 267 21 l 215 21 q 104 -18 149 21 q 45 -125 60 -57 q 41 -163 41 -146 q 58 -221 41 -198 q 151 -255 85 -255 q 297 -213 239 -255 q 370 -97 355 -171 q 374 -62 374 -78 q 267 21 374 21 z "},"h":{"ha":627,"x_min":-21,"x_max":548,"o":"m 405 756 q 532 693 500 756 q 548 611 548 660 q 535 503 548 562 l 429 0 l 326 0 l 429 488 q 440 574 440 541 q 434 624 440 606 q 365 666 418 666 q 243 598 292 666 q 164 389 194 530 l 81 0 l -21 0 l 203 1055 l 305 1055 l 240 748 q 214 642 231 707 l 220 642 q 303 726 254 695 q 405 756 353 756 z "},"i":{"ha":286,"x_min":-17,"x_max":299,"o":"m 203 1000 q 253 1019 225 1019 q 292 1000 281 1019 q 299 972 299 987 q 269 890 299 919 q 221 869 248 869 q 180 890 193 869 q 172 917 172 903 q 203 1000 172 970 m 86 0 l -17 0 l 141 743 l 244 743 l 86 0 z "},"j":{"ha":287,"x_min":-156,"x_max":336,"o":"m 240 1000 q 290 1019 262 1019 q 330 1000 318 1019 q 336 972 336 987 q 305 890 336 921 q 258 869 286 869 q 218 890 231 869 q 210 918 210 903 q 240 1000 210 970 m 98 -120 q -97 -334 52 -334 q -156 -320 -135 -334 l -137 -230 q -92 -241 -114 -241 q -39 -212 -60 -241 q -5 -119 -19 -182 l 178 743 l 281 743 l 98 -120 z "},"k":{"ha":539,"x_min":-21,"x_max":563,"o":"m 191 511 l 156 378 l 162 378 l 222 458 l 453 743 l 563 743 l 326 458 l 420 0 l 312 0 l 240 377 l 142 284 l 82 0 l -21 0 l 203 1055 l 306 1055 l 191 511 z "},"l":{"ha":284,"x_min":-21,"x_max":306,"o":"m 82 0 l -21 0 l 203 1055 l 306 1055 l 82 0 z "},"m":{"ha":947,"x_min":10,"x_max":898,"o":"m 252 742 l 241 642 l 250 642 q 432 756 320 756 q 527 724 495 756 q 564 627 559 692 q 593 663 583 650 q 625 696 603 675 q 665 728 647 717 q 766 756 713 756 q 884 690 855 756 q 898 607 898 658 q 882 484 898 555 l 779 0 l 677 0 l 780 484 q 790 570 790 534 q 718 663 790 663 q 605 601 649 663 q 534 409 561 539 l 446 0 l 343 0 l 446 484 q 457 570 457 534 q 385 663 457 663 q 271 599 316 663 q 196 390 227 535 l 113 0 l 10 0 l 168 742 l 252 742 z "},"n":{"ha":627,"x_min":10,"x_max":579,"o":"m 252 742 l 241 642 l 250 642 q 335 726 284 696 q 439 756 385 756 q 563 694 531 756 q 579 612 579 661 q 567 503 579 563 l 460 0 l 357 0 l 461 488 q 471 572 471 537 q 399 666 471 666 q 270 592 316 666 q 184 336 223 517 l 113 0 l 10 0 l 168 742 l 252 742 z "},"o":{"ha":612,"x_min":40,"x_max":572,"o":"m 58 370 q 184 657 98 557 q 387 756 269 756 q 548 654 504 756 q 572 528 572 600 q 553 372 572 456 q 428 87 514 187 q 224 -14 341 -14 q 64 87 107 -14 q 40 212 40 140 q 58 370 40 284 m 145 218 q 243 78 145 78 q 447 372 385 78 q 466 524 466 462 q 368 665 466 665 q 245 593 294 665 q 165 372 196 521 q 145 218 145 281 z "},"p":{"ha":633,"x_min":-24,"x_max":629,"o":"m 479 754 q 614 654 581 754 q 629 540 629 609 q 608 372 629 471 q 492 87 569 189 q 313 -14 416 -14 q 222 15 260 -14 q 170 96 185 43 l 163 96 q 151 5 154 23 l 79 -334 l -24 -334 l 204 742 l 286 742 l 279 642 l 286 642 q 479 754 364 754 m 208 213 q 307 77 208 77 q 422 150 374 77 q 503 373 471 222 q 524 533 524 469 q 518 591 524 567 q 430 665 501 665 q 311 601 358 665 q 233 397 263 536 l 229 376 q 208 213 208 278 z "},"q":{"ha":633,"x_min":72,"x_max":655,"o":"m 418 104 q 230 -14 336 -14 q 88 83 123 -14 q 72 199 72 129 q 93 370 72 269 q 209 655 132 557 q 387 753 286 753 q 477 727 442 753 q 530 644 513 701 l 536 644 q 570 742 547 677 l 655 742 l 427 -334 l 324 -334 l 391 -16 q 424 104 399 21 l 418 104 m 493 528 q 392 664 493 664 q 278 590 325 664 q 199 368 231 515 q 178 219 178 269 q 184 145 178 170 q 270 75 201 75 q 389 142 339 75 q 466 338 439 208 l 473 369 q 493 528 493 465 z "},"r":{"ha":408,"x_min":10,"x_max":477,"o":"m 415 757 q 477 747 450 757 l 439 646 q 391 655 416 655 q 276 580 332 655 q 196 389 221 505 l 113 0 l 10 0 l 168 743 l 253 743 l 238 617 l 243 617 q 415 757 326 757 z "},"s":{"ha":465,"x_min":-26,"x_max":490,"o":"m -3 131 q 59 95 15 110 q 151 79 102 79 q 236 109 199 79 q 286 216 283 148 q 282 243 287 230 q 274 263 277 256 q 259 283 271 271 q 207 328 243 299 q 137 391 172 357 q 83 513 83 443 q 89 565 83 537 q 176 703 106 649 q 338 757 245 757 q 490 711 430 757 l 431 631 q 323 669 378 669 q 234 640 269 669 q 190 566 199 612 q 186 535 186 549 q 211 475 186 497 l 286 409 q 367 316 349 353 q 385 240 385 277 q 378 184 385 215 q 125 -14 336 -14 q -26 28 27 -14 l -3 131 z "},"t":{"ha":353,"x_min":33,"x_max":385,"o":"m 143 188 q 136 134 136 155 q 140 102 136 114 q 187 77 151 77 q 254 88 223 77 l 236 5 q 137 -14 197 -14 q 39 49 58 -14 q 33 117 33 73 q 50 236 33 160 l 140 656 l 71 656 l 81 709 l 163 743 l 229 913 l 297 913 l 261 742 l 385 742 l 366 656 l 243 656 l 143 188 z "},"u":{"ha":627,"x_min":50,"x_max":616,"o":"m 189 -14 q 50 137 50 -14 q 64 258 50 189 l 167 742 l 270 742 l 170 272 q 157 169 157 211 q 175 98 157 120 q 228 77 193 77 q 352 142 302 77 q 431 352 401 207 l 514 742 l 616 742 l 459 0 l 376 0 q 385 101 378 33 l 378 101 q 292 17 342 47 q 189 -14 242 -14 z "},"v":{"ha":501,"x_min":83,"x_max":575,"o":"m 189 742 q 193 561 189 696 q 196 325 196 427 q 191 103 196 223 l 195 103 q 222 175 209 144 q 469 742 250 247 l 575 742 l 232 0 l 107 0 l 83 742 l 189 742 z "},"w":{"ha":842,"x_min":92,"x_max":906,"o":"m 906 742 q 588 0 734 339 l 460 0 l 468 431 l 470 507 q 477 635 474 592 l 475 635 q 401 446 446 553 q 302 204 357 338 q 219 0 248 70 l 92 0 l 92 742 l 195 742 q 193 590 194 697 q 191 427 193 484 q 178 100 189 262 l 182 100 q 263 319 222 222 l 438 742 l 556 742 l 556 317 q 556 289 556 315 q 543 100 556 262 l 547 100 q 806 742 566 164 l 906 742 z "},"x":{"ha":506,"x_min":-60,"x_max":557,"o":"m 307 378 l 408 0 l 300 0 l 235 293 l 47 0 l -60 0 l 204 383 l 110 743 l 218 743 l 276 467 l 451 743 l 557 743 l 307 378 z "},"y":{"ha":501,"x_min":-104,"x_max":611,"o":"m 96 -279 q 83 -292 96 -279 q 36 -319 70 -304 q -33 -334 3 -334 q -104 -322 -69 -334 l -85 -233 q -31 -242 -58 -242 q 44 -209 12 -242 q 109 -104 77 -176 l 157 -3 l 119 742 l 224 742 l 237 294 q 238 231 238 273 q 233 116 238 190 l 238 116 q 306 289 278 222 l 505 742 l 611 742 q 263 -4 454 406 q 205 -120 229 -75 q 152 -210 182 -165 q 96 -279 123 -255 z "},"z":{"ha":410,"x_min":-43,"x_max":448,"o":"m 431 665 l 90 86 l 319 86 l 300 0 l -43 0 l -28 73 l 318 656 l 111 656 l 129 743 l 448 743 l 431 665 z "},"{":{"ha":500,"x_min":46,"x_max":574,"o":"m 261 330 q 277 275 277 305 q 271 217 277 245 l 229 20 q 221 -46 221 -15 q 234 -98 221 -77 q 334 -136 257 -135 l 316 -220 q 148 -165 195 -217 q 115 -70 115 -130 q 122 -11 115 -43 l 168 206 q 174 255 174 233 q 156 313 174 293 q 46 345 129 345 l 64 427 q 186 456 145 427 q 243 562 227 485 l 291 783 q 574 991 334 987 l 555 907 q 444 873 484 907 q 388 768 404 840 l 343 557 q 284 442 326 481 q 167 389 242 402 l 165 382 q 261 330 236 370 z "},"|":{"ha":604,"x_min":110,"x_max":494,"o":"m 199 -329 l 110 -329 l 404 1054 l 494 1054 l 199 -329 z "},"}":{"ha":500,"x_min":-75,"x_max":454,"o":"m 385 840 q 378 783 385 814 l 331 562 q 326 514 326 535 q 343 457 326 477 q 454 427 371 427 l 436 345 q 315 316 358 345 q 256 206 273 288 l 210 -11 q -75 -220 166 -214 l -56 -136 q 57 -101 17 -135 q 113 3 98 -66 l 158 216 q 215 330 174 290 q 333 382 257 369 l 334 389 q 240 441 265 401 q 224 497 224 466 q 231 557 224 528 l 275 768 q 281 823 281 794 q 264 873 281 851 q 165 907 238 907 l 183 991 q 385 840 385 986 z "},"~":{"ha":578,"x_min":62,"x_max":552,"o":"m 389 409 q 308 428 348 409 q 260 454 300 431 q 195 482 220 476 q 146 474 166 482 q 119 462 125 465 q 102 453 112 459 q 88 444 92 447 q 62 428 75 436 l 83 524 q 142 555 103 540 q 208 570 180 570 q 285 546 242 568 q 313 531 297 540 q 331 521 328 522 q 411 494 375 494 q 552 574 474 494 l 532 481 q 389 409 465 409 z "},"¡":{"ha":329,"x_min":-8,"x_max":328,"o":"m 180 659 q 212 722 189 701 q 270 744 235 744 q 319 723 304 744 q 328 692 328 709 q 325 659 328 675 q 234 574 307 574 q 177 628 177 574 q 180 659 177 642 m 121 -260 l -8 -260 l 172 459 l 246 459 l 121 -260 z "},"¢":{"ha":585,"x_min":90,"x_max":559,"o":"m 559 861 l 508 775 q 424 800 460 800 q 299 726 349 800 q 218 505 249 652 q 199 357 199 418 q 299 215 199 215 q 422 245 354 215 l 402 155 q 294 123 358 131 l 264 -14 l 190 -14 l 220 127 q 90 336 90 155 q 111 503 90 408 q 382 888 184 848 l 407 1004 l 481 1004 l 457 892 q 559 861 519 886 z "},"£":{"ha":585,"x_min":-49,"x_max":629,"o":"m 471 1006 q 629 949 566 1006 l 567 867 q 453 913 519 913 q 367 873 399 913 q 317 747 334 833 l 273 540 l 440 540 l 422 455 l 254 455 l 234 360 q 205 260 223 308 q 94 96 174 146 l 450 96 l 429 0 l -49 0 l -30 88 q 115 289 82 134 l 150 455 l 43 455 l 62 540 l 168 540 l 205 718 q 299 935 237 865 q 471 1006 361 1006 z "},"¤":{"ha":764,"x_min":26,"x_max":739,"o":"m 583 704 q 692 794 619 732 l 739 739 q 629 648 703 708 q 654 547 654 602 q 648 490 654 519 q 562 332 629 400 q 633 241 623 255 l 564 186 l 492 275 q 322 224 410 224 q 177 276 233 224 l 70 187 l 26 244 l 134 332 q 109 433 109 378 q 200 647 109 549 l 129 737 l 197 794 l 269 703 q 438 757 351 757 q 583 704 525 757 m 545 622 q 424 679 502 679 q 278 624 346 679 q 194 490 211 570 q 189 448 189 468 q 220 357 189 396 q 341 302 263 302 q 487 357 420 302 q 572 490 555 412 q 576 529 576 510 q 545 622 576 580 z "},"¥":{"ha":585,"x_min":19,"x_max":639,"o":"m 205 456 l 155 991 l 262 991 l 294 505 l 530 991 l 639 991 l 360 456 l 491 456 l 475 381 l 320 381 l 294 258 l 449 258 l 433 183 l 278 183 l 239 0 l 133 0 l 172 183 l 19 183 l 35 258 l 188 258 l 214 380 q 213 381 213 380 l 61 381 l 77 456 l 205 456 z "},"¦":{"ha":604,"x_min":110,"x_max":494,"o":"m 378 511 l 288 511 l 404 1054 l 494 1054 l 378 511 m 199 -329 l 110 -329 l 226 215 l 315 215 l 199 -329 z "},"§":{"ha":512,"x_min":-45,"x_max":536,"o":"m 328 375 q 381 268 381 328 q 377 230 381 250 q 289 89 358 142 q 117 37 220 37 q -45 75 14 37 l -26 163 q 130 113 35 113 q 230 144 189 113 q 281 223 271 175 q 284 250 284 234 q 273 285 284 265 q 203 350 257 313 q 105 423 130 399 q 71 467 78 450 q 60 499 63 484 q 61 563 53 528 q 107 657 73 616 q 191 722 141 699 q 134 836 134 768 q 139 876 134 855 q 222 1006 155 956 l 233 1013 q 379 1055 296 1055 l 393 1055 q 466 1045 436 1055 q 536 1015 496 1036 l 488 940 q 370 978 427 978 q 278 952 313 978 q 233 882 243 926 q 231 859 231 871 q 239 833 231 846 q 317 752 243 802 l 353 727 q 437 642 416 683 q 450 590 450 617 q 401 443 450 510 q 328 375 370 399 m 350 527 q 353 564 353 543 q 340 606 353 585 q 248 682 321 638 q 186 640 211 669 q 153 573 161 612 q 151 549 151 561 q 164 503 151 524 q 243 437 184 473 l 276 418 q 350 527 334 455 z "},"¨":{"ha":764,"x_min":208,"x_max":557,"o":"m 237 994 q 282 1010 256 1010 q 321 994 309 1010 q 329 969 329 983 q 326 945 329 956 q 300 896 320 913 q 254 878 280 878 q 216 895 229 878 q 208 920 208 907 q 237 994 208 970 m 465 994 q 474 1002 465 994 q 510 1010 484 1010 q 548 994 536 1010 q 557 970 557 983 q 528 895 557 921 q 482 878 508 878 q 444 896 456 878 q 436 921 436 907 q 438 945 436 935 q 465 994 445 977 z "},"©":{"ha":1152,"x_min":54,"x_max":1097,"o":"m 684 1006 q 926 936 823 1006 q 1072 748 1029 865 q 1097 614 1097 678 q 1002 297 1097 444 q 673 26 880 107 q 467 -14 570 -14 q 330 6 394 -14 q 218 60 265 26 q 133 142 170 95 q 56 367 66 229 q 54 414 54 382 q 66 496 54 446 q 151 697 88 602 q 297 860 213 793 q 483 966 381 927 q 684 1006 585 1006 m 830 899 q 667 933 756 933 q 489 898 578 933 q 330 802 400 862 q 208 662 259 743 q 138 496 157 582 q 127 405 127 448 q 137 323 127 361 q 323 92 178 159 q 483 58 396 58 q 717 118 603 58 q 909 279 831 178 q 1013 496 988 380 q 1023 584 1023 542 q 1015 666 1023 627 q 830 899 974 831 m 530 186 q 346 266 400 186 q 312 394 312 317 q 323 493 312 439 q 447 720 354 636 q 669 804 541 804 q 829 764 755 804 l 781 690 q 654 724 719 724 q 505 663 567 724 q 420 496 443 602 q 410 401 410 446 q 429 323 410 355 q 553 267 460 267 q 703 299 623 267 l 686 218 q 530 186 607 186 z "},"ª":{"ha":415,"x_min":12,"x_max":365,"o":"m 283 848 q 288 886 288 869 q 231 938 288 938 q 127 907 189 938 q 115 965 119 950 q 258 1003 189 1003 q 351 966 327 1003 q 365 912 365 943 q 358 850 365 882 l 293 543 l 241 543 q 241 605 241 564 q 172 552 204 570 q 102 535 139 535 q 27 570 51 535 q 12 619 12 593 q 17 668 12 646 q 79 768 31 733 q 215 809 126 803 l 276 813 l 283 848 m 92 642 q 136 598 92 598 q 213 631 181 598 q 256 721 244 663 l 264 760 l 219 755 q 132 729 161 749 q 94 667 103 710 q 92 642 92 654 z "},"«":{"ha":644,"x_min":52,"x_max":641,"o":"m 375 599 l 176 365 l 275 130 l 195 89 l 52 355 l 56 373 l 311 640 l 375 599 m 641 599 l 443 365 l 541 130 l 460 89 l 317 355 l 321 373 l 577 640 l 641 599 z "},"¬":{"ha":578,"x_min":72,"x_max":556,"o":"m 479 170 l 397 170 l 457 448 l 72 448 l 90 532 l 556 532 l 479 170 z "},"­":{"ha":379,"x_min":30,"x_max":349,"o":"m 329 325 l 30 325 l 50 423 l 349 423 l 329 325 z "},"®":{"ha":1152,"x_min":54,"x_max":1097,"o":"m 684 1006 q 926 936 823 1006 q 1072 748 1029 865 q 1097 614 1097 678 q 1002 297 1097 444 q 673 26 880 107 q 467 -14 570 -14 q 330 6 394 -14 q 218 60 265 26 q 133 142 170 95 q 56 367 66 229 q 54 414 54 382 q 66 496 54 446 q 151 697 88 602 q 297 860 213 793 q 483 966 381 927 q 684 1006 585 1006 m 830 899 q 667 933 756 933 q 489 898 578 933 q 330 802 400 862 q 208 662 259 743 q 138 496 157 582 q 127 405 127 448 q 137 323 127 361 q 323 92 178 159 q 483 58 396 58 q 717 118 603 58 q 909 279 831 178 q 1013 496 988 380 q 1023 584 1023 542 q 1015 666 1023 627 q 830 899 974 831 m 615 797 q 797 669 797 797 q 791 620 797 646 q 657 458 766 503 l 671 417 q 716 279 696 340 q 744 193 736 218 l 639 193 l 570 433 l 478 433 l 427 193 l 333 193 l 461 797 l 615 797 m 528 505 q 577 512 557 505 q 654 542 623 515 q 695 616 685 569 q 699 649 699 635 q 678 699 699 683 q 573 722 649 722 l 540 722 l 494 505 l 528 505 z "},"¯":{"ha":612,"x_min":-13,"x_max":625,"o":"m 608 1055 l -13 1055 l 3 1135 l 625 1135 l 608 1055 z "},"°":{"ha":585,"x_min":75,"x_max":509,"o":"m 173 945 q 337 1006 248 1006 q 474 945 425 1006 q 509 843 509 903 q 504 793 509 820 q 410 642 485 702 q 247 583 337 583 q 108 642 157 583 q 75 743 75 684 q 80 793 75 766 q 173 945 99 883 m 406 890 q 320 929 376 929 q 218 889 264 929 q 161 793 172 848 q 157 762 157 777 q 179 698 157 726 q 263 659 210 659 q 364 698 317 659 q 423 793 411 736 q 427 825 427 810 q 406 890 427 863 z "},"±":{"ha":578,"x_min":-35,"x_max":553,"o":"m 356 532 l 553 532 l 536 448 l 338 448 l 279 170 l 198 170 l 257 448 l 60 448 l 77 532 l 275 532 l 334 812 l 416 812 l 356 532 m 441 0 l -35 0 l -18 83 l 458 83 l 441 0 z "},"²":{"ha":433,"x_min":-31,"x_max":399,"o":"m 306 840 q 309 869 309 852 q 296 902 309 886 q 240 926 278 926 q 118 869 184 926 q 82 928 94 909 q 263 1006 170 1006 q 375 963 340 1006 q 399 888 399 933 q 345 734 399 812 q 124 512 311 689 q 86 476 100 489 l 327 476 l 311 397 l -31 397 l -16 468 q 162 638 89 568 q 266 747 236 708 q 306 840 295 787 z "},"³":{"ha":433,"x_min":-21,"x_max":395,"o":"m 267 591 q 159 670 267 670 l 109 670 l 124 741 l 172 741 q 262 768 227 741 q 309 846 298 796 q 311 876 311 859 q 298 909 311 893 q 237 930 280 930 q 117 880 181 930 l 86 941 q 261 1006 173 1006 q 370 964 336 1006 q 395 890 395 935 q 390 850 395 871 q 348 765 380 800 q 266 713 316 730 l 264 707 q 352 598 352 682 q 347 557 352 579 q 268 433 331 480 q 120 386 205 386 q -21 418 35 386 l -3 500 q 130 460 53 460 q 263 561 241 460 q 267 591 267 577 z "},"´":{"ha":761,"x_min":243,"x_max":543,"o":"m 543 1064 l 541 1051 q 439 948 513 1014 q 306 842 365 883 l 243 842 l 246 857 q 416 1064 348 962 l 543 1064 z "},"µ":{"ha":629,"x_min":-26,"x_max":653,"o":"m 413 101 q 334 16 379 46 q 247 -14 289 -14 q 189 -2 205 -14 q 152 43 172 9 q 118 -145 138 -43 l 77 -334 l -26 -334 l 203 742 l 307 742 l 202 252 q 192 170 192 204 q 264 77 192 77 q 388 142 340 77 q 467 352 436 207 l 550 742 l 653 742 l 495 0 l 411 0 q 420 101 414 37 l 413 101 z "},"¶":{"ha":682,"x_min":116,"x_max":692,"o":"m 234 367 q 116 528 116 367 q 139 707 116 600 q 242 969 176 882 q 408 1055 308 1055 l 692 1055 l 430 -176 l 353 -176 l 597 968 l 494 968 l 251 -176 l 174 -176 l 292 379 q 234 367 266 367 z "},"·":{"ha":315,"x_min":82,"x_max":233,"o":"m 176 574 q 233 520 233 574 q 230 490 233 507 q 197 426 221 447 q 139 404 173 404 q 82 459 82 404 q 85 490 82 473 q 176 574 104 574 z "},"¸":{"ha":304,"x_min":-12,"x_max":260,"o":"m 175 -69 q 260 -161 260 -92 q 256 -191 260 -175 q 189 -297 241 -260 q 54 -334 137 -334 q -12 -324 11 -334 l 3 -254 q 63 -263 31 -263 q 167 -193 151 -263 q 169 -177 169 -184 q 148 -135 169 -153 q 74 -108 127 -117 l 148 0 l 220 0 l 175 -69 z "},"¹":{"ha":433,"x_min":87,"x_max":355,"o":"m 229 397 l 146 397 l 215 724 q 258 903 243 850 q 118 806 220 871 l 87 862 l 283 991 l 355 991 l 229 397 z "},"º":{"ha":434,"x_min":35,"x_max":399,"o":"m 45 770 q 127 942 69 880 q 267 1003 185 1003 q 381 943 348 1003 q 399 863 399 908 q 389 770 399 818 q 308 596 366 656 q 167 535 250 535 q 53 596 84 535 q 35 676 35 631 q 45 770 35 721 m 320 852 q 252 935 320 935 q 125 770 160 935 q 114 690 114 720 q 120 643 114 660 q 182 603 134 603 q 261 643 231 603 q 310 770 292 682 q 320 852 320 819 z "},"»":{"ha":644,"x_min":4,"x_max":593,"o":"m 327 373 l 323 355 l 66 89 l 4 130 l 201 365 l 104 599 l 183 640 l 327 373 m 593 373 l 589 355 l 333 89 l 270 130 l 468 365 l 370 599 l 450 640 l 593 373 z "},"¼":{"ha":1007,"x_min":82,"x_max":895,"o":"m 169 0 l 82 0 l 807 991 l 895 991 l 169 0 m 256 397 l 172 397 l 241 724 q 254 780 246 743 q 285 903 269 845 q 204 845 248 873 q 145 806 161 817 l 115 862 l 310 991 l 382 991 l 256 397 m 791 204 l 862 204 l 846 131 l 776 131 l 748 1 l 665 1 l 693 131 l 464 131 l 477 193 q 795 599 557 295 l 875 599 l 791 204 m 709 204 l 747 384 q 772 489 764 460 q 561 204 720 408 l 709 204 z "},"½":{"ha":1007,"x_min":71,"x_max":928,"o":"m 159 0 l 71 0 l 796 991 l 884 991 l 159 0 m 256 397 l 173 397 l 242 724 q 286 903 270 850 q 145 806 247 871 l 115 862 l 311 991 l 382 991 l 256 397 m 836 444 q 838 472 838 455 q 826 506 838 489 q 770 530 808 530 q 648 473 713 530 q 612 532 623 512 q 793 609 699 609 q 905 566 870 609 q 928 491 928 536 q 874 338 928 416 q 654 115 841 292 q 616 79 629 92 l 857 79 l 840 1 l 499 1 l 514 71 q 692 241 618 172 q 795 351 765 311 q 836 444 825 390 z "},"¾":{"ha":1007,"x_min":20,"x_max":920,"o":"m 214 741 q 304 768 269 741 q 351 846 340 796 q 353 869 353 859 q 340 909 353 893 q 279 930 321 930 q 158 880 223 930 l 127 941 q 303 1006 216 1006 q 414 964 378 1006 q 437 891 437 935 q 433 850 437 872 q 390 765 422 800 q 307 713 357 730 l 306 707 q 393 600 393 682 q 389 557 393 581 q 310 433 372 480 q 162 386 247 386 q 20 418 77 386 l 38 500 q 172 460 96 460 q 305 561 284 460 q 309 591 309 576 q 290 642 309 622 q 200 670 263 670 l 151 670 l 166 741 l 214 741 m 832 991 l 920 991 q 193 0 469 374 l 106 0 l 832 991 m 808 204 l 879 204 l 863 131 l 793 131 l 766 1 l 683 1 l 710 131 l 481 131 l 494 193 q 813 599 574 295 l 892 599 l 808 204 m 726 204 l 764 384 q 789 489 781 460 q 578 204 736 407 l 726 204 z "},"¿":{"ha":437,"x_min":-35,"x_max":422,"o":"m 363 744 q 422 689 422 744 q 418 659 422 675 q 327 574 400 574 q 279 595 294 574 q 270 625 270 608 q 273 659 270 642 q 307 723 282 701 q 363 744 331 744 m 78 -41 q 72 -96 72 -68 q 84 -144 72 -123 q 161 -181 104 -181 q 294 -138 217 -181 q 319 -217 303 -164 q 127 -275 226 -275 q -11 -214 28 -275 q -35 -119 -35 -176 q -29 -58 -35 -84 q -14 2 -23 -31 q 7 60 -5 35 q 48 124 19 86 q 138 226 77 161 q 220 328 199 290 q 255 427 242 366 l 262 459 l 349 459 l 341 419 q 302 302 326 345 q 209 180 278 260 q 133 90 140 100 q 78 -41 93 30 z "},"À":{"ha":614,"x_min":-138,"x_max":476,"o":"m 248 1293 l 376 1293 q 409 1188 385 1249 q 457 1086 433 1126 l 454 1071 l 390 1071 q 304 1174 353 1107 q 245 1281 258 1240 l 248 1293 m 314 992 l 442 992 q 476 0 454 673 l 370 0 l 361 323 l 115 323 l -31 0 l -138 0 l 314 992 m 353 781 q 353 809 353 786 q 357 897 353 833 q 300 746 332 820 q 255 642 269 673 q 157 422 232 588 l 361 422 l 355 684 l 353 781 z "},"Á":{"ha":614,"x_min":-138,"x_max":635,"o":"m 635 1293 l 633 1280 q 531 1178 605 1243 q 398 1071 457 1112 l 335 1071 l 338 1086 q 508 1293 436 1187 l 635 1293 m 314 992 l 442 992 q 476 0 454 673 l 370 0 l 361 323 l 115 323 l -31 0 l -138 0 l 314 992 m 353 781 q 353 809 353 786 q 357 897 353 833 q 300 746 332 820 q 255 642 269 673 q 157 422 232 588 l 361 422 l 355 684 l 353 781 z "},"Â":{"ha":614,"x_min":-138,"x_max":585,"o":"m 390 1293 l 495 1293 q 527 1201 502 1260 q 585 1085 553 1141 l 582 1071 l 524 1071 q 471 1139 500 1095 l 425 1207 q 267 1071 307 1101 l 209 1071 l 212 1085 q 390 1293 332 1210 m 314 992 l 442 992 q 476 0 454 673 l 370 0 l 361 323 l 115 323 l -31 0 l -138 0 l 314 992 m 353 781 q 353 809 353 786 q 357 897 353 833 q 300 746 332 820 q 255 642 269 673 q 157 422 232 588 l 361 422 l 355 684 l 353 781 z "},"Ã":{"ha":614,"x_min":-132,"x_max":646,"o":"m 489 1072 q 443 1084 466 1072 q 405 1112 420 1097 q 339 1154 365 1154 q 266 1070 296 1154 l 201 1070 q 266 1192 226 1149 q 359 1234 307 1234 q 405 1221 382 1234 q 443 1193 428 1208 q 476 1165 458 1177 q 514 1152 495 1152 q 548 1173 532 1152 q 581 1235 564 1193 l 646 1235 q 582 1114 623 1156 q 489 1072 541 1072 m 320 992 l 448 992 q 482 0 460 673 l 376 0 l 368 323 l 121 323 l -24 0 l -132 0 l 320 992 m 361 684 l 359 781 q 363 897 359 834 q 306 746 338 820 q 262 642 275 673 q 163 422 238 588 l 367 422 l 361 684 z "},"Ä":{"ha":614,"x_min":-132,"x_max":600,"o":"m 280 1223 q 326 1240 300 1240 q 363 1223 351 1240 q 372 1198 372 1211 q 343 1125 372 1151 q 298 1107 323 1107 q 259 1124 272 1107 q 251 1149 251 1136 q 280 1223 251 1199 m 507 1223 q 553 1240 527 1240 q 591 1223 579 1240 q 600 1199 600 1213 q 571 1124 600 1150 q 526 1107 551 1107 q 487 1125 500 1107 q 479 1150 479 1137 q 507 1223 479 1198 m 448 992 q 482 0 460 668 l 376 0 l 367 323 l 120 323 l -24 0 l -132 0 q 320 992 162 647 l 448 992 m 360 684 l 359 781 q 363 897 359 842 q 260 642 330 798 q 211 532 246 610 q 162 422 176 453 l 366 422 l 360 684 z "},"Å":{"ha":614,"x_min":-128,"x_max":555,"o":"m 453 949 l 486 0 l 379 0 l 370 323 l 123 323 l -21 0 l -128 0 q 304 949 291 921 q 256 1034 256 977 q 260 1071 256 1051 q 321 1171 273 1133 q 433 1208 369 1208 q 532 1171 498 1208 q 555 1104 555 1143 q 552 1073 555 1089 q 517 998 543 1030 q 453 949 491 966 m 482 1071 q 484 1097 484 1082 q 473 1126 484 1112 q 422 1146 457 1146 q 361 1125 387 1146 q 325 1050 325 1097 q 336 1015 325 1029 q 388 995 352 995 q 450 1016 424 995 q 482 1071 475 1036 m 370 422 l 363 684 l 362 781 q 367 897 362 842 q 264 642 334 798 q 214 532 250 610 q 165 422 179 453 l 370 422 z "},"Æ":{"ha":843,"x_min":-105,"x_max":884,"o":"m 863 895 l 581 895 l 511 566 l 776 566 l 755 470 l 491 470 l 412 96 l 694 96 l 673 0 l 286 0 l 354 323 l 165 323 q 3 0 138 269 l -105 0 l 408 991 l 884 991 l 863 895 m 454 894 l 393 772 q 291 572 347 683 q 216 422 235 460 l 375 422 l 475 894 l 454 894 z "},"Ç":{"ha":603,"x_min":79,"x_max":703,"o":"m 99 149 q 79 296 79 212 q 101 488 79 380 q 268 868 153 730 q 538 1006 383 1006 q 703 956 633 1006 l 643 867 q 519 910 589 910 q 335 799 417 910 q 212 496 253 688 q 190 318 190 393 q 206 193 190 243 q 348 82 243 82 q 501 117 428 82 l 481 22 q 326 -14 416 -13 l 288 -69 q 373 -161 373 -91 q 370 -191 373 -175 q 302 -297 355 -260 q 168 -334 250 -334 q 101 -324 124 -334 l 116 -254 q 176 -263 144 -263 q 280 -193 266 -263 q 282 -177 282 -184 q 261 -135 282 -153 q 188 -108 241 -117 l 257 -7 q 99 149 140 20 z "},"È":{"ha":553,"x_min":-36,"x_max":563,"o":"m 248 1293 l 376 1293 q 410 1188 386 1249 q 458 1086 434 1126 l 454 1071 l 391 1071 q 305 1174 354 1107 q 245 1281 258 1240 l 248 1293 m 543 896 l 260 896 l 190 566 l 456 566 l 435 471 l 170 471 l 90 96 l 373 96 l 352 0 l -36 0 l 175 991 l 563 991 l 543 896 z "},"É":{"ha":553,"x_min":-36,"x_max":613,"o":"m 613 1293 l 610 1280 q 509 1178 583 1243 q 376 1071 435 1112 l 313 1071 l 316 1086 q 486 1293 414 1187 l 613 1293 m 543 896 l 260 896 l 190 566 l 456 566 l 435 471 l 170 471 l 90 96 l 373 96 l 352 0 l -36 0 l 175 991 l 563 991 l 543 896 z "},"Ê":{"ha":553,"x_min":-36,"x_max":571,"o":"m 376 1293 l 481 1293 q 514 1201 488 1260 q 571 1085 539 1141 l 568 1071 l 510 1071 q 457 1139 487 1095 l 411 1207 q 253 1071 293 1101 l 195 1071 l 198 1085 q 376 1293 319 1210 m 543 896 l 260 896 l 190 566 l 456 566 l 435 471 l 170 471 l 90 96 l 373 96 l 352 0 l -36 0 l 175 991 l 563 991 l 543 896 z "},"Ë":{"ha":553,"x_min":-30,"x_max":586,"o":"m 266 1223 q 311 1240 286 1240 q 349 1223 337 1240 q 357 1198 357 1211 q 329 1125 357 1151 q 283 1107 309 1107 q 245 1124 258 1107 q 237 1149 237 1136 q 266 1223 237 1199 m 493 1223 q 539 1240 513 1240 q 578 1223 565 1240 q 586 1199 586 1213 q 557 1124 586 1150 q 511 1107 537 1107 q 473 1125 486 1107 q 465 1150 465 1137 q 493 1223 465 1198 m 549 896 l 266 896 l 195 566 l 461 566 l 441 471 l 175 471 l 96 96 l 378 96 l 358 0 l -30 0 l 180 991 l 568 991 l 549 896 z "},"Ì":{"ha":328,"x_min":-25,"x_max":321,"o":"m 111 1293 l 239 1293 q 273 1188 249 1249 q 321 1086 297 1126 l 317 1071 l 254 1071 q 168 1174 217 1107 q 109 1281 121 1240 l 111 1293 m 77 0 l -25 0 l 186 991 l 288 991 l 77 0 z "},"Í":{"ha":328,"x_min":-25,"x_max":498,"o":"m 498 1293 l 495 1280 q 393 1178 467 1243 q 260 1071 319 1112 l 197 1071 l 201 1086 q 370 1293 298 1187 l 498 1293 m 77 0 l -25 0 l 186 991 l 288 991 l 77 0 z "},"Î":{"ha":328,"x_min":-25,"x_max":443,"o":"m 248 1293 l 353 1293 q 386 1201 360 1260 q 443 1085 411 1141 l 440 1071 l 382 1071 q 329 1139 359 1095 l 283 1207 q 125 1071 165 1101 l 67 1071 l 70 1085 q 248 1293 191 1210 m 77 0 l -25 0 l 186 991 l 288 991 l 77 0 z "},"Ï":{"ha":328,"x_min":-19,"x_max":457,"o":"m 137 1223 q 182 1240 157 1240 q 220 1223 208 1240 q 229 1198 229 1211 q 200 1125 229 1151 q 155 1107 180 1107 q 117 1124 129 1107 q 108 1149 108 1136 q 137 1223 108 1199 m 364 1223 q 410 1240 384 1240 q 449 1223 436 1240 q 457 1199 457 1213 q 428 1124 457 1150 q 382 1107 408 1107 q 345 1125 357 1107 q 336 1150 336 1137 q 364 1223 336 1198 m 83 0 l -19 0 l 191 991 l 293 991 l 83 0 z "},"Ð":{"ha":708,"x_min":-4,"x_max":664,"o":"m 415 991 q 632 866 574 991 q 664 706 664 798 q 641 505 664 614 q 475 127 587 255 q 195 0 362 0 l -4 0 l 92 453 l 18 453 l 38 547 l 112 547 l 206 991 l 415 991 m 553 685 q 391 898 553 898 l 292 898 l 218 547 l 361 547 l 341 453 l 198 453 l 121 94 l 212 94 q 530 500 444 94 q 553 685 553 607 z "},"Ñ":{"ha":782,"x_min":-30,"x_max":760,"o":"m 581 1072 q 535 1084 558 1072 q 497 1112 512 1097 q 431 1154 457 1154 q 358 1070 389 1154 l 293 1070 q 358 1192 318 1149 q 452 1234 399 1234 q 497 1221 475 1234 q 535 1193 520 1208 q 569 1165 550 1177 q 606 1152 587 1152 q 641 1173 625 1152 q 673 1235 656 1193 l 739 1235 q 674 1114 715 1156 q 581 1072 633 1072 m 549 0 l 418 0 l 243 833 l 236 833 q 210 655 230 752 l 70 0 l -30 0 l 181 991 l 313 991 l 488 168 l 493 168 q 524 349 508 272 l 661 991 l 760 991 l 549 0 z "},"Ò":{"ha":757,"x_min":12,"x_max":683,"o":"m 322 1293 l 450 1293 q 484 1188 460 1249 q 532 1086 508 1126 l 528 1071 l 465 1071 q 379 1174 428 1107 q 319 1281 332 1240 l 322 1293 m 458 1006 q 658 873 606 1006 q 683 714 683 808 q 656 497 683 620 q 496 119 604 252 q 238 -14 389 -14 q 37 120 87 -14 q 12 279 12 185 q 39 498 12 373 q 458 1006 147 1006 m 574 709 q 437 909 574 909 q 147 497 235 909 q 121 287 121 374 q 259 83 121 83 q 431 187 358 83 q 548 497 505 291 q 574 709 574 621 z "},"Ó":{"ha":757,"x_min":12,"x_max":707,"o":"m 707 1293 l 704 1280 q 602 1178 676 1243 q 469 1071 528 1112 l 406 1071 l 410 1086 q 579 1293 511 1191 l 707 1293 m 458 1006 q 658 873 606 1006 q 683 714 683 808 q 656 497 683 620 q 496 119 604 252 q 238 -14 389 -14 q 37 120 87 -14 q 12 279 12 185 q 39 498 12 373 q 458 1006 147 1006 m 574 709 q 437 909 574 909 q 147 497 235 909 q 121 287 121 374 q 259 83 121 83 q 431 187 358 83 q 548 497 505 291 q 574 709 574 621 z "},"Ô":{"ha":757,"x_min":12,"x_max":683,"o":"m 463 1293 l 568 1293 q 601 1200 576 1259 q 659 1085 627 1141 l 655 1071 l 597 1071 q 544 1139 574 1095 l 498 1207 q 340 1071 380 1101 l 282 1071 l 286 1085 q 463 1293 410 1215 m 458 1006 q 658 873 606 1006 q 683 714 683 808 q 656 497 683 620 q 496 119 604 252 q 238 -14 389 -14 q 37 120 87 -14 q 12 279 12 185 q 39 498 12 373 q 458 1006 147 1006 m 574 709 q 437 909 574 909 q 147 497 235 909 q 121 287 121 374 q 259 83 121 83 q 431 187 358 83 q 548 497 505 291 q 574 709 574 621 z "},"Õ":{"ha":757,"x_min":18,"x_max":723,"o":"m 566 1072 q 519 1084 543 1072 q 481 1112 496 1097 q 416 1154 441 1154 q 342 1070 373 1154 l 277 1070 q 343 1192 302 1149 q 436 1234 383 1234 q 482 1221 459 1234 q 519 1193 505 1208 q 553 1165 534 1177 q 591 1152 572 1152 q 658 1235 627 1152 l 723 1235 q 658 1114 699 1156 q 566 1072 617 1072 m 464 1006 q 663 873 612 1006 q 689 714 689 808 q 663 497 689 620 q 503 119 610 252 q 244 -14 395 -14 q 43 120 94 -14 q 18 280 18 186 q 45 498 18 374 q 464 1006 153 1006 m 127 288 q 266 83 127 83 q 438 187 365 83 q 554 497 511 291 q 581 711 581 624 q 444 909 581 909 q 270 805 343 909 q 153 497 197 700 q 127 288 127 374 z "},"Ö":{"ha":757,"x_min":18,"x_max":689,"o":"m 356 1223 q 401 1240 376 1240 q 439 1223 427 1240 q 448 1198 448 1211 q 419 1125 448 1151 q 374 1107 399 1107 q 335 1124 348 1107 q 327 1149 327 1136 q 356 1223 327 1199 m 584 1223 q 629 1240 604 1240 q 667 1223 655 1240 q 676 1199 676 1213 q 647 1124 676 1150 q 602 1107 627 1107 q 563 1125 576 1107 q 555 1150 555 1137 q 584 1223 555 1198 m 463 1006 q 663 873 612 1006 q 689 713 689 807 q 663 497 689 620 q 503 119 610 252 q 244 -14 395 -14 q 43 120 94 -14 q 18 280 18 186 q 45 498 18 374 q 463 1006 153 1006 m 127 287 q 265 83 127 83 q 554 497 465 83 q 581 711 581 623 q 443 909 581 909 q 269 805 342 909 q 153 497 196 700 q 127 287 127 374 z "},"×":{"ha":578,"x_min":3,"x_max":573,"o":"m 300 551 l 523 748 l 573 697 q 341 490 382 526 l 483 284 l 412 233 l 275 429 l 52 231 q 3 283 35 249 l 235 490 q 92 695 131 639 l 163 746 l 300 551 z "},"Ø":{"ha":757,"x_min":-38,"x_max":804,"o":"m 693 861 q 714 711 714 801 q 688 497 714 622 q 528 119 636 252 q 271 -14 420 -14 q 113 51 168 -14 l 28 -65 l -38 -31 l 69 118 q 43 277 43 182 q 71 498 43 372 q 489 1006 178 1006 q 652 931 593 1006 l 737 1049 q 804 1014 751 1041 l 693 861 m 585 836 q 469 909 553 909 q 295 805 368 909 q 179 497 222 700 q 152 288 152 373 q 155 237 152 260 l 585 836 m 291 83 q 579 501 490 83 q 606 716 606 626 q 606 736 606 727 l 180 144 q 291 83 212 83 z "},"Ù":{"ha":718,"x_min":14,"x_max":697,"o":"m 312 1293 l 440 1293 q 474 1188 450 1249 q 522 1086 498 1126 l 518 1071 l 454 1071 q 369 1174 418 1107 q 309 1281 322 1240 l 312 1293 m 557 332 q 436 74 521 161 q 221 -14 351 -14 q 42 75 91 -14 q 14 194 14 126 q 29 332 14 261 l 169 991 l 275 991 l 132 322 q 121 222 121 268 q 136 144 121 177 q 242 83 165 83 q 372 144 319 83 q 450 323 425 205 l 592 991 l 697 991 l 557 332 z "},"Ú":{"ha":718,"x_min":14,"x_max":697,"o":"m 683 1293 l 680 1280 q 578 1178 652 1243 q 446 1071 505 1112 l 382 1071 l 386 1086 q 555 1293 488 1191 l 683 1293 m 557 332 q 436 74 521 161 q 221 -14 351 -14 q 42 75 91 -14 q 14 194 14 126 q 29 332 14 261 l 169 991 l 275 991 l 132 322 q 121 222 121 268 q 136 144 121 177 q 242 83 165 83 q 372 144 319 83 q 450 323 425 205 l 592 991 l 697 991 l 557 332 z "},"Û":{"ha":718,"x_min":14,"x_max":697,"o":"m 445 1293 l 550 1293 q 583 1200 557 1259 q 640 1085 608 1141 l 637 1071 l 578 1071 q 526 1139 555 1095 l 479 1207 q 321 1071 361 1101 l 264 1071 l 267 1085 q 445 1293 391 1215 m 557 332 q 436 74 521 161 q 221 -14 351 -14 q 42 75 91 -14 q 14 194 14 126 q 29 332 14 261 l 169 991 l 275 991 l 132 322 q 121 222 121 268 q 136 144 121 177 q 242 83 165 83 q 372 144 319 83 q 450 323 425 205 l 592 991 l 697 991 l 557 332 z "},"Ü":{"ha":718,"x_min":20,"x_max":703,"o":"m 333 1223 q 378 1240 353 1240 q 416 1223 404 1240 q 425 1198 425 1211 q 396 1125 425 1151 q 351 1107 376 1107 q 312 1124 325 1107 q 304 1149 304 1136 q 333 1223 304 1199 m 561 1223 q 606 1240 581 1240 q 644 1223 632 1240 q 653 1199 653 1213 q 624 1124 653 1150 q 578 1107 604 1107 q 540 1125 553 1107 q 532 1150 532 1137 q 561 1223 532 1198 m 563 332 q 441 74 526 161 q 227 -14 357 -14 q 47 75 97 -14 q 20 194 20 127 q 35 332 20 261 l 175 991 l 281 991 l 138 322 q 127 222 127 267 q 142 144 127 176 q 248 83 170 83 q 378 144 325 83 q 456 323 431 205 l 598 991 l 703 991 l 563 332 z "},"Ý":{"ha":527,"x_min":73,"x_max":600,"o":"m 591 1293 l 589 1280 q 487 1178 561 1243 q 354 1071 413 1112 l 291 1071 l 294 1086 q 464 1293 392 1187 l 591 1293 m 261 391 l 178 0 l 73 0 l 155 388 l 73 991 l 184 991 l 237 519 l 489 991 l 600 991 l 261 391 z "},"Þ":{"ha":602,"x_min":-4,"x_max":576,"o":"m 343 817 q 542 746 488 817 q 576 627 576 702 q 565 530 576 583 q 443 297 532 376 q 212 218 353 218 l 148 218 l 102 0 l -4 0 l 206 991 l 312 991 l 275 817 l 343 817 m 224 313 q 379 361 325 313 q 456 522 433 409 q 465 604 465 563 q 445 673 465 644 q 319 720 412 720 l 254 720 l 168 313 l 224 313 z "},"ß":{"ha":622,"x_min":-20,"x_max":593,"o":"m 157 829 q 258 1001 187 940 q 426 1063 329 1063 q 565 1010 523 1063 q 593 920 593 975 q 587 865 593 895 q 486 697 568 776 l 479 691 q 420 627 439 652 q 396 582 401 601 q 392 549 392 563 q 397 515 392 534 q 434 449 402 496 l 460 418 q 519 269 519 342 q 513 210 519 241 q 424 46 490 105 q 267 -14 357 -14 q 138 22 176 -14 l 159 118 q 266 75 210 75 q 358 108 322 75 q 406 203 393 142 q 412 241 412 222 q 406 278 412 260 q 352 372 395 315 q 296 475 309 430 q 288 523 288 499 q 293 570 288 547 q 400 722 309 647 q 454 791 436 760 q 486 897 486 841 q 405 972 486 972 q 309 930 348 972 q 254 807 271 888 l 82 0 l -20 0 l 140 759 q 157 829 151 806 z "},"à":{"ha":570,"x_min":-29,"x_max":490,"o":"m 221 1064 l 349 1064 q 383 959 359 1020 q 431 857 407 897 l 427 842 l 363 842 q 278 945 327 878 q 218 1052 231 1011 l 221 1064 m 159 626 l 136 701 q 336 757 237 757 q 471 695 436 757 q 490 611 490 661 q 478 503 490 561 l 371 0 l 292 0 l 296 103 l 293 103 q 105 -12 213 -12 q -9 45 24 -12 q -29 121 -29 79 q -20 205 -29 163 q 79 375 3 315 q 277 441 156 436 l 363 446 l 376 504 q 386 581 386 551 q 378 631 386 612 q 307 671 363 671 q 159 626 242 671 m 79 149 q 151 69 79 69 q 261 130 213 69 q 332 298 309 191 l 347 370 q 277 367 326 370 q 150 323 197 363 q 86 204 103 283 q 79 149 79 172 z "},"á":{"ha":570,"x_min":-29,"x_max":581,"o":"m 581 1064 l 578 1051 q 476 948 550 1014 q 343 842 402 883 l 280 842 l 283 857 q 453 1064 381 958 l 581 1064 m 159 626 l 136 701 q 336 757 237 757 q 471 695 436 757 q 490 611 490 661 q 478 503 490 561 l 371 0 l 292 0 l 296 103 l 293 103 q 105 -12 213 -12 q -9 45 24 -12 q -29 121 -29 79 q -20 205 -29 163 q 79 375 3 315 q 277 441 156 436 l 363 446 l 376 504 q 386 581 386 551 q 378 631 386 612 q 307 671 363 671 q 159 626 242 671 m 79 149 q 151 69 79 69 q 261 130 213 69 q 332 298 309 191 l 347 370 q 277 367 326 370 q 150 323 197 363 q 86 204 103 283 q 79 149 79 172 z "},"â":{"ha":570,"x_min":-30,"x_max":543,"o":"m 347 1065 l 452 1065 q 485 972 460 1031 q 543 857 511 913 l 539 842 l 481 842 q 428 910 458 867 l 382 979 q 224 842 264 873 l 166 842 l 170 857 q 347 1065 294 986 m 159 626 l 136 701 q 336 757 237 757 q 471 695 436 757 q 490 611 490 661 q 478 503 490 561 l 371 0 l 292 0 l 296 103 l 293 103 q 105 -12 213 -12 q -9 45 24 -12 q -30 122 -30 79 q -21 205 -30 165 q 79 375 2 315 q 276 441 156 436 l 363 446 l 376 504 q 386 581 386 550 q 378 631 386 612 q 302 671 362 671 q 159 626 242 671 m 79 149 q 151 69 79 69 q 261 130 213 69 q 332 298 309 191 l 347 370 q 277 367 323 370 q 150 323 197 363 q 86 204 103 283 q 79 149 79 172 z "},"ã":{"ha":570,"x_min":-23,"x_max":608,"o":"m 450 842 q 404 855 427 842 q 366 883 381 868 q 300 924 326 924 q 227 841 258 924 l 162 841 q 228 962 187 920 q 321 1004 268 1004 q 367 992 344 1004 q 404 964 389 979 q 438 936 419 948 q 475 923 456 923 q 510 943 494 923 q 543 1006 526 964 l 608 1006 q 543 884 584 926 q 450 842 502 842 m 165 626 l 142 701 q 342 757 243 757 q 477 695 442 757 q 496 611 496 661 q 484 503 496 561 l 377 0 l 298 0 l 303 103 l 300 103 q 111 -12 219 -12 q -3 45 30 -12 q -23 121 -23 79 q -14 205 -23 163 q 85 375 9 315 q 283 441 162 436 l 370 446 l 382 504 q 392 581 392 551 q 385 631 392 612 q 313 671 369 671 q 165 626 248 671 m 85 149 q 157 69 85 69 q 267 130 219 69 q 338 298 315 191 l 353 370 q 283 367 332 370 q 156 322 203 363 q 92 204 109 282 q 85 149 85 172 z "},"ä":{"ha":570,"x_min":-24,"x_max":553,"o":"m 233 994 q 279 1010 253 1010 q 317 994 304 1010 q 325 969 325 982 q 296 896 325 922 q 251 878 277 878 q 213 895 225 878 q 204 920 204 907 q 233 994 204 970 m 460 994 q 506 1010 480 1010 q 545 994 532 1010 q 553 970 553 983 q 524 895 553 921 q 479 878 505 878 q 441 896 453 878 q 432 921 432 907 q 460 994 432 969 m 165 626 q 142 701 165 626 q 342 757 242 757 q 476 695 441 757 q 496 611 496 661 q 484 503 496 561 l 377 0 l 298 0 l 302 103 l 299 103 q 111 -12 218 -12 q -4 45 29 -12 q -24 121 -24 79 q -15 205 -24 163 q 85 375 8 315 q 282 441 162 436 l 369 446 l 381 504 q 391 581 391 551 q 384 631 391 612 q 313 671 368 671 q 165 626 248 671 m 85 148 q 156 69 85 69 q 267 130 218 69 q 338 298 315 191 l 353 370 q 283 367 330 370 q 156 322 203 363 q 92 204 109 282 q 85 148 85 172 z "},"å":{"ha":570,"x_min":-35,"x_max":526,"o":"m 231 983 q 292 1082 244 1045 q 404 1120 340 1120 q 502 1082 469 1120 q 526 1016 526 1055 q 523 985 526 1001 q 462 883 510 921 q 348 846 414 846 q 250 882 281 846 q 227 947 227 908 q 231 983 227 964 m 444 1038 q 393 1058 428 1058 q 332 1037 358 1058 q 296 962 296 1008 q 307 927 296 941 q 359 907 323 907 q 420 927 395 907 q 453 983 446 948 q 455 1008 455 994 q 444 1038 455 1023 m 154 626 q 130 701 154 626 q 330 757 231 757 q 465 695 430 757 q 484 611 484 661 q 472 503 484 561 l 365 0 l 286 0 l 291 103 l 288 103 q 100 -12 207 -12 q -16 45 18 -12 q -35 121 -35 79 q -26 205 -35 163 q 73 375 -3 315 q 271 441 150 436 l 357 446 l 370 504 q 380 581 380 551 q 373 631 380 612 q 301 671 357 671 q 154 626 236 671 m 74 149 q 144 69 74 69 q 255 130 207 69 q 326 298 303 191 l 342 370 q 271 367 319 370 q 144 322 191 363 q 80 204 97 282 q 74 149 74 173 z "},"æ":{"ha":896,"x_min":-9,"x_max":864,"o":"m 193 626 l 169 701 q 362 755 269 755 q 509 658 481 755 q 695 756 589 756 q 841 668 801 756 q 864 557 864 618 q 850 428 864 495 l 834 356 l 481 356 q 467 233 467 286 q 588 73 467 73 q 758 122 670 73 l 739 33 q 559 -14 654 -14 q 438 25 485 -14 q 375 136 391 63 q 269 22 326 58 q 143 -14 212 -14 q 25 44 59 -14 q 13 209 -9 102 q 112 375 35 315 q 309 441 189 436 l 396 446 l 409 504 q 418 578 418 547 q 340 671 418 671 q 193 626 275 671 m 751 438 q 764 537 764 496 q 755 608 764 579 q 679 670 735 670 q 500 438 563 670 l 751 438 m 113 148 q 183 69 113 69 q 294 130 245 69 q 365 298 342 191 l 380 370 q 311 367 357 370 q 182 324 229 363 q 119 204 136 285 q 113 148 113 172 z "},"ç":{"ha":458,"x_min":35,"x_max":542,"o":"m 191 -5 q 73 203 73 28 q 93 367 73 274 q 215 658 134 559 q 416 756 296 756 q 542 724 493 756 l 490 640 q 406 665 448 665 q 199 368 262 665 q 180 228 180 279 q 189 148 180 176 q 286 78 210 78 q 404 106 336 78 l 385 18 q 259 -14 326 -12 l 222 -69 q 307 -161 307 -91 q 303 -191 307 -175 q 236 -297 288 -260 q 101 -334 184 -334 q 35 -324 58 -334 l 50 -254 q 110 -263 78 -263 q 214 -193 199 -263 q 216 -176 216 -184 q 121 -108 216 -123 l 191 -5 z "},"è":{"ha":576,"x_min":9,"x_max":511,"o":"m 237 1064 l 365 1064 q 397 961 374 1020 q 446 857 420 903 l 443 842 l 379 842 q 294 945 342 878 q 234 1052 247 1011 l 237 1064 m 208 -14 q 35 85 83 -14 q 9 213 9 141 q 26 366 9 286 q 149 655 66 554 q 347 756 232 756 q 488 667 448 756 q 511 557 511 618 q 496 428 511 496 l 481 356 l 128 356 q 114 233 114 286 q 238 75 114 75 q 406 123 315 75 l 387 33 q 208 -14 300 -14 m 397 438 q 410 537 410 496 q 401 608 410 578 q 326 671 382 671 q 148 438 208 671 l 397 438 z "},"é":{"ha":576,"x_min":9,"x_max":602,"o":"m 602 1064 l 599 1051 q 497 948 571 1014 q 364 842 423 883 l 301 842 l 304 857 q 474 1064 406 962 l 602 1064 m 208 -14 q 35 85 83 -14 q 9 213 9 141 q 26 366 9 286 q 149 655 66 554 q 347 756 232 756 q 488 667 448 756 q 511 557 511 618 q 496 428 511 496 l 481 356 l 128 356 q 114 233 114 286 q 238 75 114 75 q 406 123 315 75 l 387 33 q 208 -14 300 -14 m 397 438 q 410 537 410 496 q 401 608 410 578 q 326 671 382 671 q 148 438 208 671 l 397 438 z "},"ê":{"ha":576,"x_min":9,"x_max":553,"o":"m 358 1064 l 463 1064 q 496 971 471 1030 q 553 856 522 912 l 550 842 l 492 842 q 439 909 469 866 l 393 978 q 235 842 283 878 l 177 842 l 180 856 q 358 1064 304 985 m 208 -14 q 35 85 83 -14 q 9 213 9 141 q 26 366 9 286 q 149 655 66 554 q 347 756 232 756 q 488 667 448 756 q 511 557 511 618 q 496 428 511 496 l 481 356 l 128 356 q 114 233 114 286 q 238 75 114 75 q 406 123 315 75 l 387 33 q 208 -14 300 -14 m 397 438 q 410 537 410 496 q 401 608 410 578 q 326 671 382 671 q 148 438 208 671 l 397 438 z "},"ë":{"ha":576,"x_min":14,"x_max":566,"o":"m 245 994 q 291 1010 265 1010 q 329 994 317 1010 q 337 969 337 982 q 309 896 337 922 q 263 878 289 878 q 225 895 237 878 q 216 920 216 907 q 245 994 216 970 m 473 994 q 518 1010 492 1010 q 557 994 545 1010 q 566 970 566 983 q 536 895 566 921 q 491 878 517 878 q 453 896 465 878 q 444 921 444 907 q 473 994 444 968 m 214 -14 q 41 85 89 -14 q 14 213 14 141 q 31 366 14 286 q 155 655 71 554 q 353 756 238 756 q 494 667 454 756 q 517 557 517 618 q 503 428 517 495 l 487 356 l 134 356 q 119 233 119 286 q 243 75 119 75 q 411 123 321 75 l 392 33 q 214 -14 306 -14 m 403 438 q 415 537 415 496 q 407 608 415 578 q 331 671 387 671 q 153 438 214 671 l 403 438 z "},"ì":{"ha":286,"x_min":-22,"x_max":283,"o":"m 74 1064 l 202 1064 q 236 959 212 1020 q 283 857 260 897 l 280 842 l 216 842 q 131 945 180 878 q 71 1052 84 1011 l 74 1064 m 81 0 l -22 0 l 136 743 l 239 743 l 81 0 z "},"í":{"ha":286,"x_min":-22,"x_max":443,"o":"m 443 1064 l 440 1051 q 338 948 412 1014 q 205 842 264 883 l 142 842 l 146 857 q 315 1064 243 958 l 443 1064 m 81 0 l -22 0 l 136 743 l 239 743 l 81 0 z "},"î":{"ha":286,"x_min":-22,"x_max":397,"o":"m 203 1064 l 308 1064 q 340 971 315 1031 q 397 856 366 912 l 395 842 l 336 842 q 283 909 313 866 l 237 978 q 79 842 119 872 l 22 842 l 24 856 q 203 1064 149 984 m 81 0 l -22 0 l 136 743 l 239 743 l 81 0 z "},"ï":{"ha":286,"x_min":-16,"x_max":412,"o":"m 92 994 q 138 1010 112 1010 q 176 994 163 1010 q 184 969 184 982 q 155 896 184 922 q 110 878 136 878 q 72 895 84 878 q 63 920 63 907 q 92 994 63 970 m 320 994 q 365 1010 339 1010 q 404 994 391 1010 q 412 970 412 983 q 383 895 412 921 q 338 878 363 878 q 300 896 312 878 q 291 921 291 907 q 320 994 291 968 m 87 0 l -16 0 l 142 743 l 245 743 l 87 0 z "},"ð":{"ha":615,"x_min":4,"x_max":586,"o":"m 257 995 q 313 1058 305 1050 q 412 975 370 1022 q 560 1057 515 1031 l 586 995 l 454 923 q 547 588 547 787 q 522 361 547 484 q 398 82 483 178 q 191 -14 313 -14 q 69 29 117 -14 q 4 209 4 88 q 16 321 4 260 q 128 568 50 481 q 315 655 206 655 q 447 573 411 655 q 453 574 451 573 q 453 584 453 579 q 369 876 453 749 l 223 798 l 198 860 l 328 930 q 257 995 298 963 m 319 567 q 120 317 172 567 q 109 218 109 262 q 121 141 109 174 q 216 76 145 76 q 336 140 288 76 q 412 338 384 205 q 422 426 422 384 q 408 503 422 468 q 319 567 382 567 z "},"ñ":{"ha":627,"x_min":-16,"x_max":634,"o":"m 477 842 q 431 855 454 842 q 393 883 408 868 q 327 924 353 924 q 254 841 284 924 l 189 841 q 254 962 214 920 q 347 1004 294 1004 q 393 992 370 1004 q 431 964 416 979 q 464 936 446 948 q 502 923 483 923 q 536 943 520 923 q 569 1006 552 964 l 634 1006 q 569 884 610 926 q 477 842 528 842 m 225 742 q 214 642 223 710 l 222 642 q 308 726 257 696 q 412 756 358 756 q 553 608 553 756 q 541 503 553 562 l 433 0 l 330 0 l 434 488 q 444 573 444 537 q 372 666 444 666 q 243 592 290 666 q 158 336 197 517 l 86 0 l -16 0 l 142 742 l 225 742 z "},"ò":{"ha":612,"x_min":7,"x_max":538,"o":"m 243 1064 l 372 1064 q 404 961 381 1020 q 453 857 427 903 l 450 842 l 386 842 q 300 945 349 878 q 241 1052 254 1011 l 243 1064 m 26 370 q 151 657 66 557 q 353 756 236 756 q 515 654 471 756 q 538 528 538 600 q 521 372 538 456 q 395 87 481 187 q 192 -14 309 -14 q 31 87 75 -14 q 7 212 7 140 q 26 370 7 284 m 336 665 q 213 593 262 665 q 132 372 163 521 q 113 219 113 281 q 211 78 113 78 q 414 372 351 78 q 433 524 433 462 q 336 665 433 665 z "},"ó":{"ha":612,"x_min":7,"x_max":604,"o":"m 604 1064 l 602 1051 q 500 948 574 1014 q 367 842 426 883 l 304 842 l 307 857 q 477 1064 409 962 l 604 1064 m 26 370 q 151 657 66 557 q 353 756 236 756 q 515 654 471 756 q 538 528 538 600 q 521 372 538 456 q 395 87 481 187 q 192 -14 309 -14 q 31 87 75 -14 q 7 212 7 140 q 26 370 7 284 m 336 665 q 213 593 262 665 q 132 372 163 521 q 113 219 113 281 q 211 78 113 78 q 414 372 351 78 q 433 524 433 462 q 336 665 433 665 z "},"ô":{"ha":612,"x_min":7,"x_max":564,"o":"m 369 1064 l 474 1064 q 507 971 481 1030 q 564 856 532 912 l 561 842 l 503 842 q 450 909 479 866 l 404 978 q 245 842 294 878 l 188 842 l 191 856 q 369 1064 315 985 m 26 370 q 151 657 66 557 q 353 756 236 756 q 515 654 471 756 q 538 528 538 600 q 521 372 538 456 q 395 87 481 187 q 192 -14 309 -14 q 31 87 75 -14 q 7 212 7 140 q 26 370 7 284 m 336 665 q 213 593 262 665 q 132 372 163 521 q 113 219 113 281 q 211 78 113 78 q 414 372 351 78 q 433 524 433 462 q 336 665 433 665 z "},"õ":{"ha":612,"x_min":14,"x_max":623,"o":"m 466 842 q 420 855 443 842 q 381 883 397 868 q 315 924 340 924 q 242 841 273 924 l 177 841 q 242 962 202 920 q 336 1004 283 1004 q 381 992 359 1004 q 419 964 404 979 q 453 936 434 948 q 490 923 471 923 q 557 1006 527 923 l 623 1006 q 558 884 599 926 q 466 842 517 842 m 32 370 q 157 657 72 557 q 360 756 243 756 q 521 654 477 756 q 545 528 545 600 q 527 372 545 456 q 401 87 488 187 q 198 -14 315 -14 q 37 87 81 -14 q 14 212 14 140 q 32 370 14 284 m 342 665 q 219 593 268 665 q 138 372 170 521 q 119 219 119 281 q 217 78 119 78 q 420 372 359 78 q 439 524 439 462 q 342 665 439 665 z "},"ö":{"ha":612,"x_min":14,"x_max":576,"o":"m 256 994 q 302 1010 276 1010 q 340 994 328 1010 q 348 969 348 982 q 319 896 348 922 q 274 878 300 878 q 236 895 248 878 q 227 920 227 907 q 256 994 227 970 m 484 994 q 529 1010 503 1010 q 568 994 555 1010 q 576 970 576 983 q 547 895 576 921 q 502 878 528 878 q 464 896 476 878 q 455 921 455 907 q 484 994 455 968 m 32 370 q 157 657 71 557 q 359 756 242 756 q 521 654 477 756 q 545 528 545 600 q 526 372 545 456 q 401 87 487 187 q 198 -14 315 -14 q 37 87 81 -14 q 14 212 14 140 q 32 370 14 284 m 118 218 q 216 78 118 78 q 420 372 358 78 q 439 524 439 462 q 341 665 439 665 q 218 593 267 665 q 138 372 169 521 q 118 218 118 281 z "},"÷":{"ha":578,"x_min":41,"x_max":535,"o":"m 356 807 q 405 758 405 807 q 401 726 405 744 q 371 666 393 686 q 321 646 350 646 q 272 696 272 646 q 275 726 272 709 q 356 807 293 807 m 517 448 l 41 448 l 59 532 l 535 532 l 517 448 m 255 333 q 304 284 304 333 q 300 253 304 271 q 271 192 292 213 q 220 172 249 172 q 171 221 171 172 q 175 253 171 235 q 255 333 192 333 z "},"ø":{"ha":612,"x_min":-31,"x_max":643,"o":"m 581 807 l 643 772 l 553 645 q 574 523 574 592 q 556 372 574 454 q 431 86 517 186 q 225 -14 345 -14 q 113 26 153 -14 q 33 -86 55 -56 l -31 -50 q 67 85 31 34 q 43 212 43 139 q 62 372 43 286 q 186 657 101 558 q 391 756 271 756 q 510 708 466 756 l 581 807 m 370 665 q 247 592 296 665 q 165 372 197 519 q 146 198 146 280 q 448 622 348 480 q 370 665 425 665 m 245 78 q 369 153 317 78 q 452 372 421 227 q 469 516 469 460 q 469 528 469 522 l 174 111 q 245 78 195 78 z "},"ù":{"ha":627,"x_min":15,"x_max":583,"o":"m 239 1064 l 368 1064 q 400 961 377 1020 q 449 857 422 903 l 446 842 l 382 842 q 296 945 345 878 q 237 1052 250 1011 l 239 1064 m 155 -14 q 31 52 62 -14 q 15 137 15 85 q 30 258 15 189 l 133 742 l 236 742 l 136 272 q 123 169 123 211 q 141 98 123 120 q 193 77 159 77 q 317 142 268 77 q 397 352 366 207 l 480 742 l 583 742 l 425 0 l 341 0 q 350 101 347 64 l 343 101 q 257 17 307 47 q 155 -14 208 -14 z "},"ú":{"ha":627,"x_min":15,"x_max":612,"o":"m 612 1064 l 610 1051 q 508 948 582 1014 q 375 842 434 883 l 312 842 l 315 857 q 485 1064 417 962 l 612 1064 m 155 -14 q 31 52 62 -14 q 15 137 15 85 q 30 258 15 189 l 133 742 l 236 742 l 136 272 q 123 169 123 211 q 141 98 123 120 q 193 77 159 77 q 317 142 268 77 q 397 352 366 207 l 480 742 l 583 742 l 425 0 l 341 0 q 350 101 347 64 l 343 101 q 257 17 307 47 q 155 -14 208 -14 z "},"û":{"ha":627,"x_min":15,"x_max":583,"o":"m 371 1064 l 476 1064 q 509 971 484 1030 q 566 856 534 912 l 563 842 l 505 842 q 452 909 481 866 l 406 978 q 248 842 296 878 l 190 842 l 193 856 q 371 1064 317 985 m 155 -14 q 31 52 62 -14 q 15 137 15 85 q 30 258 15 189 l 133 742 l 236 742 l 136 272 q 123 169 123 211 q 141 98 123 120 q 193 77 159 77 q 317 142 268 77 q 397 352 366 207 l 480 742 l 583 742 l 425 0 l 341 0 q 350 101 347 64 l 343 101 q 257 17 307 47 q 155 -14 208 -14 z "},"ü":{"ha":627,"x_min":21,"x_max":588,"o":"m 262 994 q 308 1010 282 1010 q 346 994 334 1010 q 354 969 354 982 q 326 896 354 922 q 280 878 306 878 q 241 895 254 878 q 233 920 233 907 q 262 994 233 970 m 490 994 q 536 1010 510 1010 q 574 994 562 1010 q 583 970 583 983 q 553 895 583 921 q 508 878 534 878 q 469 896 482 878 q 461 921 461 907 q 490 994 461 968 m 347 0 l 355 101 l 349 101 q 263 17 313 47 q 161 -14 214 -14 q 21 137 21 -14 q 36 258 21 189 l 138 742 l 241 742 l 142 272 q 129 169 129 211 q 147 98 129 120 q 199 77 165 77 q 323 142 274 77 q 403 352 372 207 l 486 742 l 588 742 l 431 0 l 347 0 z "},"ý":{"ha":501,"x_min":-138,"x_max":586,"o":"m 586 1064 l 583 1051 q 481 948 555 1014 q 349 842 408 883 l 286 842 l 289 857 q 458 1064 391 962 l 586 1064 m -9 -324 q -71 -334 -37 -334 q -138 -322 -104 -334 l -119 -233 q -64 -242 -92 -242 q 10 -209 -22 -242 q 75 -104 43 -176 l 123 -3 l 84 742 l 190 742 l 203 294 q 204 229 204 273 q 199 116 204 186 l 204 116 q 260 262 237 208 q 354 476 283 317 q 470 742 424 635 l 576 742 q 229 -4 419 406 q 90 -248 140 -191 q -9 -324 39 -309 z "},"þ":{"ha":633,"x_min":-57,"x_max":597,"o":"m 253 642 q 440 756 334 756 q 581 659 546 756 q 597 544 597 614 q 576 372 597 473 q 459 88 537 189 q 281 -14 382 -14 q 189 15 227 -14 q 137 96 152 43 l 131 96 l 121 5 l 48 -334 l -57 -334 l 239 1055 l 341 1055 l 275 743 l 248 642 l 253 642 m 176 213 q 275 77 176 77 q 389 148 341 77 q 469 373 436 219 q 491 537 491 473 q 486 594 491 570 q 397 665 469 665 q 279 601 326 665 q 201 397 231 536 l 197 376 q 176 213 176 278 z "},"ÿ":{"ha":501,"x_min":-132,"x_max":582,"o":"m 236 994 q 282 1010 256 1010 q 320 994 308 1010 q 328 970 328 983 q 299 896 328 922 q 254 878 279 878 q 216 895 228 878 q 207 920 207 907 q 236 994 207 970 m 464 994 q 509 1010 484 1010 q 548 994 535 1010 q 556 970 556 983 q 527 895 556 921 q 481 878 507 878 q 444 896 456 878 q 435 921 435 907 q 464 994 435 968 m 68 -279 q 55 -292 68 -279 q 8 -319 41 -304 q -62 -334 -26 -334 q -132 -322 -98 -334 l -113 -233 q -59 -242 -87 -242 q 16 -209 -17 -242 q 81 -104 48 -176 l 129 -3 l 90 742 l 195 742 l 209 294 q 210 229 210 273 q 205 116 210 186 l 210 116 q 277 289 249 221 q 475 742 366 491 l 582 742 q 235 -4 395 342 q 177 -120 201 -75 q 124 -210 153 -165 q 68 -279 94 -255 z "},"ı":{"ha":286,"x_min":13,"x_max":273,"o":"m 116 0 l 13 0 l 170 743 l 273 743 l 116 0 z "},"Œ":{"ha":884,"x_min":44,"x_max":925,"o":"m 414 0 q 353 -3 393 0 q 295 -7 312 -6 q 73 121 130 -7 q 44 283 44 188 q 70 498 44 378 q 235 871 121 743 q 513 999 349 999 q 600 991 549 999 l 925 991 l 905 896 l 622 896 l 552 566 l 817 566 l 796 470 l 532 470 l 452 96 l 734 96 l 715 0 l 414 0 m 517 899 q 494 900 510 900 q 299 804 376 900 q 178 497 223 708 q 153 304 153 378 q 168 188 153 230 q 323 92 203 92 q 346 92 338 92 l 517 899 z "},"œ":{"ha":962,"x_min":40,"x_max":930,"o":"m 627 -14 q 447 123 484 -14 q 222 -14 357 -14 q 64 87 107 -14 q 40 212 40 140 q 58 370 40 284 q 183 658 99 559 q 391 756 267 756 q 551 622 516 756 q 766 756 639 756 q 907 668 867 756 q 930 557 930 619 q 916 428 930 495 l 900 356 l 547 356 q 534 235 534 287 q 661 75 534 75 q 825 122 734 75 l 806 33 q 627 -14 719 -14 m 817 438 q 829 538 829 496 q 821 608 829 579 q 745 670 801 670 q 567 438 628 670 l 817 438 m 465 524 q 368 665 465 665 q 245 593 294 665 q 165 372 196 521 q 146 218 146 281 q 243 76 146 76 q 444 361 383 76 l 446 372 q 465 524 465 463 z "},"Š":{"ha":557,"x_min":-76,"x_max":623,"o":"m 623 1293 l 619 1278 q 515 1165 567 1225 q 441 1071 464 1104 l 336 1071 q 246 1278 310 1160 l 250 1293 l 307 1293 q 408 1156 339 1259 q 564 1293 511 1256 l 623 1293 m 130 82 q 250 131 198 82 q 318 254 302 180 q 323 298 323 277 q 305 368 323 336 q 218 456 278 414 q 110 550 144 504 q 75 668 75 598 q 85 747 75 703 q 192 933 109 861 q 382 1006 275 1006 q 562 957 490 1006 q 506 865 524 896 q 369 907 436 907 q 253 863 302 907 q 189 749 204 819 q 182 701 182 720 q 183 670 182 682 q 215 607 189 636 q 297 542 241 578 q 415 422 385 488 q 433 342 433 383 q 425 264 433 300 q 313 62 398 137 q 112 -14 229 -14 q -76 26 -5 -14 l -53 134 q 32 96 -18 111 q 130 82 82 82 z "},"š":{"ha":465,"x_min":-58,"x_max":540,"o":"m 540 1064 l 536 1049 q 434 937 486 997 q 358 842 382 876 l 253 842 q 163 1049 227 931 l 167 1064 l 224 1064 q 326 927 256 1029 q 481 1064 429 1027 l 540 1064 m -37 131 q 26 95 -18 110 q 118 79 70 79 q 203 109 167 79 q 254 216 250 148 q 249 243 254 229 q 241 263 243 256 q 226 283 239 270 l 210 298 q 173 330 207 302 q 104 391 139 357 q 50 513 50 444 q 56 565 50 538 q 143 703 74 649 q 305 757 213 757 q 458 711 397 757 l 399 631 q 291 669 345 669 q 202 640 237 669 q 157 566 167 612 q 154 535 154 549 q 178 475 154 497 l 253 409 q 334 316 317 353 q 353 240 353 277 q 346 184 353 215 q 92 -14 304 -14 q -58 28 -5 -14 l -37 131 z "},"Ÿ":{"ha":527,"x_min":79,"x_max":606,"o":"m 237 1223 q 283 1240 257 1240 q 321 1223 309 1240 q 329 1198 329 1211 q 300 1125 329 1151 q 255 1107 281 1107 q 217 1124 229 1107 q 208 1149 208 1136 q 237 1223 208 1199 m 465 1223 q 510 1240 484 1240 q 549 1223 536 1240 q 557 1199 557 1213 q 528 1124 557 1150 q 483 1107 509 1107 q 445 1125 457 1107 q 436 1150 436 1137 q 465 1223 436 1198 m 267 391 l 184 0 l 79 0 l 161 388 l 79 991 l 190 991 l 243 519 l 494 991 l 606 991 l 267 391 z "},"Ž":{"ha":488,"x_min":-102,"x_max":570,"o":"m 570 1293 l 566 1278 q 463 1165 514 1225 q 388 1071 411 1104 l 283 1071 q 193 1278 258 1156 l 197 1293 l 254 1293 q 355 1156 281 1265 q 511 1293 458 1256 l 570 1293 m 507 908 l 35 96 l 344 96 l 323 0 l -102 0 l -85 83 l 386 895 l 94 895 l 115 991 l 525 991 l 507 908 z "},"ž":{"ha":410,"x_min":-77,"x_max":512,"o":"m 512 1064 l 509 1049 q 405 936 456 996 q 330 842 353 875 l 225 842 q 136 1049 199 931 l 139 1064 l 197 1064 q 298 927 229 1029 q 454 1064 401 1027 l 512 1064 m 397 665 l 55 86 l 284 86 l 266 0 l -77 0 l -62 73 l 284 656 l 77 656 l 95 743 l 414 743 l 397 665 z "},"ƒ":{"ha":585,"x_min":-93,"x_max":669,"o":"m 548 1006 q 669 978 612 1006 l 616 892 q 535 913 576 913 q 467 877 493 913 q 422 751 441 840 l 401 653 l 536 653 l 517 567 l 382 567 q 316 255 362 472 q 243 -84 270 39 q 1 -334 190 -334 q -93 -322 -49 -334 l -73 -230 q 5 -242 -31 -242 q 90 -204 58 -242 q 138 -85 121 -166 l 276 567 l 166 567 l 178 621 l 295 656 l 311 732 q 396 940 342 874 q 548 1006 450 1006 z "},"ˆ":{"ha":780,"x_min":178,"x_max":555,"o":"m 359 1064 l 465 1064 q 497 971 472 1030 q 555 856 523 912 l 551 842 l 493 842 q 440 909 470 866 l 394 978 q 236 842 285 878 l 178 842 l 182 856 q 359 1064 306 985 z "},"ˇ":{"ha":780,"x_min":222,"x_max":599,"o":"m 599 1064 l 595 1049 q 493 937 545 997 q 417 842 441 876 l 312 842 q 222 1049 286 931 l 226 1064 l 283 1064 q 385 927 315 1029 q 541 1064 488 1027 l 599 1064 z "},"˘":{"ha":778,"x_min":235,"x_max":575,"o":"m 575 1023 q 498 890 553 937 q 366 843 444 843 q 256 888 288 843 q 235 972 235 920 q 239 1023 235 996 l 305 1023 q 304 1002 304 1011 q 321 947 304 967 q 385 926 338 926 q 460 949 431 926 q 507 1023 489 972 l 575 1023 z "},"˙":{"ha":302,"x_min":86,"x_max":217,"o":"m 169 1019 q 217 970 217 1019 q 214 944 217 958 q 186 889 207 909 q 137 869 166 869 q 95 889 108 869 q 86 917 86 902 q 89 944 86 931 q 117 1000 96 981 q 169 1019 138 1019 z "},"˚":{"ha":787,"x_min":243,"x_max":543,"o":"m 248 983 q 309 1082 260 1045 q 421 1120 357 1120 q 519 1082 486 1120 q 543 1016 543 1055 q 540 985 543 1001 q 478 883 526 921 q 364 846 430 846 q 266 882 298 846 q 243 947 243 908 q 248 983 243 964 m 461 1038 q 410 1058 445 1058 q 349 1037 375 1058 q 313 962 313 1008 q 323 927 313 941 q 375 907 339 907 q 437 927 411 907 q 470 983 463 948 q 472 1008 472 994 q 461 1038 472 1023 z "},"˛":{"ha":267,"x_min":-98,"x_max":125,"o":"m 46 -69 q -4 -173 -4 -124 q 43 -222 -4 -222 q 97 -216 69 -222 l 97 -289 q 16 -298 67 -298 q -66 -270 -35 -298 q -98 -189 -98 -241 q -43 -66 -98 -121 q 46 0 -15 -39 l 125 0 q 46 -69 71 -42 z "},"˜":{"ha":780,"x_min":167,"x_max":612,"o":"m 456 842 q 410 855 433 842 q 372 883 387 868 q 305 924 330 924 q 232 841 262 924 l 167 841 q 232 962 192 920 q 326 1004 273 1004 q 371 992 349 1004 q 409 964 394 979 q 443 936 424 948 q 480 923 461 923 q 547 1006 517 923 l 612 1006 q 548 884 589 926 q 456 842 507 842 z "},"˝":{"ha":785,"x_min":142,"x_max":630,"o":"m 422 1064 l 419 1052 q 319 945 383 1006 q 197 842 254 884 l 142 842 l 145 857 q 232 961 182 895 q 305 1064 281 1027 l 422 1064 m 630 1064 l 627 1052 q 530 948 597 1010 q 405 842 463 885 l 350 842 l 353 857 q 440 961 390 895 q 513 1064 490 1027 l 630 1064 z "},"ְ":{"ha":0,"x_min":-72,"x_max":74,"o":"m 35 -54 q 74 -92 74 -54 q 71 -113 74 -102 q 9 -172 59 -172 q -28 -135 -28 -172 q -26 -113 -28 -125 q 35 -54 -14 -54 m -9 -260 q 31 -298 31 -260 q 28 -319 31 -307 q -35 -377 16 -377 q -72 -340 -72 -377 q -69 -319 -72 -331 q -9 -260 -57 -260 z "},"ֱ":{"ha":0,"x_min":-252,"x_max":273,"o":"m -189 -54 q -150 -92 -150 -54 q -153 -113 -150 -102 q -214 -172 -165 -172 q -252 -135 -252 -172 q -250 -113 -252 -125 q -189 -54 -237 -54 m 35 -54 q 74 -92 74 -54 q 71 -113 74 -102 q 9 -172 59 -172 q -28 -135 -28 -172 q -26 -113 -28 -125 q 35 -54 -14 -54 m 233 -54 q 273 -92 273 -54 q 270 -113 273 -102 q 208 -172 258 -172 q 170 -135 170 -172 q 173 -113 170 -125 q 233 -54 185 -54 m -122 -260 q -82 -298 -82 -260 q -85 -319 -82 -307 q -147 -377 -97 -377 q -184 -340 -184 -377 q -182 -319 -184 -331 q -122 -260 -170 -260 m 189 -260 q 229 -298 229 -260 q 227 -319 229 -307 q 164 -377 214 -377 q 127 -340 127 -377 q 130 -319 127 -331 q 189 -260 142 -260 z "},"ֲ":{"ha":0,"x_min":-208,"x_max":248,"o":"m 208 -54 q 248 -92 248 -54 q 245 -113 248 -102 q 183 -172 233 -172 q 145 -135 145 -172 q 148 -113 145 -125 q 208 -54 160 -54 m 71 -140 l -208 -140 l -196 -85 l 82 -85 l 71 -140 m 164 -260 q 204 -298 204 -260 q 201 -319 204 -307 q 139 -377 189 -377 q 102 -340 102 -377 q 104 -319 102 -331 q 164 -260 117 -260 z "},"ֳ":{"ha":0,"x_min":-204,"x_max":251,"o":"m 212 -54 q 251 -92 251 -54 q 248 -113 251 -102 q 186 -172 236 -172 q 149 -135 149 -172 q 151 -113 149 -125 q 212 -54 163 -54 m 74 -140 l -37 -140 l -71 -298 l -127 -298 l -93 -140 l -204 -140 l -193 -85 l 85 -85 l 74 -140 m 168 -260 q 208 -298 208 -260 q 205 -319 208 -307 q 142 -377 193 -377 q 105 -340 105 -377 q 108 -319 105 -331 q 168 -260 120 -260 z "},"ִ":{"ha":0,"x_min":-51,"x_max":52,"o":"m 12 -54 q 52 -92 52 -54 q 49 -113 52 -102 q -13 -172 37 -172 q -51 -135 -51 -172 q -48 -113 -51 -125 q 12 -54 -36 -54 z "},"ֵ":{"ha":0,"x_min":-163,"x_max":163,"o":"m -100 -54 q -60 -92 -60 -54 q -63 -113 -60 -102 q -125 -172 -75 -172 q -163 -135 -163 -172 q -160 -113 -163 -125 q -100 -54 -148 -54 m 123 -54 q 163 -92 163 -54 q 161 -113 163 -102 q 99 -172 149 -172 q 61 -135 61 -172 q 64 -113 61 -125 q 123 -54 76 -54 z "},"ֶ":{"ha":0,"x_min":-140,"x_max":186,"o":"m -77 -54 q -37 -92 -37 -54 q -40 -113 -37 -102 q -102 -172 -52 -172 q -140 -135 -140 -172 q -137 -113 -140 -125 q -77 -54 -125 -54 m 147 -54 q 186 -92 186 -54 q 184 -113 186 -102 q 122 -172 172 -172 q 84 -135 84 -172 q 87 -113 84 -125 q 147 -54 99 -54 m -9 -260 q 31 -298 31 -260 q 28 -319 31 -307 q -35 -377 16 -377 q -72 -340 -72 -377 q -69 -319 -72 -331 q -9 -260 -57 -260 z "},"ַ":{"ha":0,"x_min":-144,"x_max":146,"o":"m 134 -134 l -144 -134 l -132 -79 l 146 -79 l 134 -134 z "},"ָ":{"ha":0,"x_min":-131,"x_max":159,"o":"m 147 -134 l 36 -134 l 3 -292 l -53 -292 l -20 -134 l -131 -134 l -119 -79 l 159 -79 l 147 -134 z "},"ֹ":{"ha":0,"x_min":-51,"x_max":52,"o":"m 12 1074 q 52 1036 52 1074 q 49 1015 52 1026 q -13 956 37 956 q -51 993 -51 956 q -48 1015 -51 1002 q 12 1074 -36 1074 z "},"ֺ":{"ha":0,"x_min":-51,"x_max":52,"o":"m 12 1074 q 52 1036 52 1074 q 49 1015 52 1026 q -13 956 37 956 q -51 993 -51 956 q -48 1015 -51 1002 q 12 1074 -36 1074 z "},"ֻ":{"ha":0,"x_min":-81,"x_max":202,"o":"m -18 -54 q 22 -92 22 -54 q 19 -113 22 -102 q -43 -172 7 -172 q -81 -135 -81 -172 q -78 -113 -81 -125 q -18 -54 -66 -54 m 71 -157 q 111 -195 111 -157 q 109 -216 111 -204 q 47 -274 96 -274 q 9 -237 9 -274 q 12 -216 9 -228 q 71 -157 24 -157 m 162 -260 q 202 -298 202 -260 q 199 -319 202 -307 q 137 -377 187 -377 q 100 -340 100 -377 q 102 -319 100 -331 q 162 -260 115 -260 z "},"ּ":{"ha":0,"x_min":-50,"x_max":52,"o":"m 12 543 q 52 505 52 543 q 50 484 52 495 q -12 425 37 425 q -50 462 -50 425 q -47 484 -50 471 q 12 543 -35 543 z "},"ֽ":{"ha":0,"x_min":-60,"x_max":60,"o":"m 10 -345 l -60 -345 l -9 -106 l 60 -106 l 10 -345 z "},"־":{"ha":379,"x_min":125,"x_max":444,"o":"m 424 776 l 125 776 l 145 874 l 444 874 l 424 776 z "},"ׁ":{"ha":0,"x_min":-50,"x_max":52,"o":"m 12 1074 q 52 1036 52 1074 q 50 1015 52 1026 q -12 956 37 956 q -50 993 -50 956 q -47 1015 -50 1002 q 12 1074 -35 1074 z "},"ׂ":{"ha":0,"x_min":-50,"x_max":52,"o":"m 12 1060 q 52 1022 52 1060 q 50 1001 52 1013 q -12 943 37 943 q -50 979 -50 943 q -47 1001 -50 989 q 12 1060 -35 1060 z "},"ׇ":{"ha":0,"x_min":-129,"x_max":163,"o":"m 149 -134 l 40 -134 l 7 -293 l -56 -293 l -23 -134 l -129 -134 l -115 -66 l 163 -66 l 149 -134 z "},"א":{"ha":583,"x_min":-41,"x_max":624,"o":"m 624 875 l 557 558 q 537 485 548 517 q 506 416 526 454 q 374 303 465 338 q 408 149 386 250 q 441 0 431 48 l 325 0 l 228 487 q 161 411 185 460 q 120 283 136 362 l 60 0 l -41 0 l 24 309 q 75 453 43 391 q 208 572 119 534 l 139 875 l 254 875 l 317 545 l 354 388 q 421 458 397 413 q 461 584 444 503 l 523 875 l 624 875 z "},"ב":{"ha":549,"x_min":-31,"x_max":511,"o":"m 156 880 q 300 888 230 888 q 411 876 370 888 q 474 843 452 864 q 511 732 511 808 q 496 623 511 690 l 382 86 l 452 86 l 433 0 l -31 0 l -12 86 l 279 86 l 393 623 q 404 701 404 671 q 397 750 404 731 q 375 780 391 769 q 283 800 346 800 q 156 793 209 800 l 137 791 l 156 880 z "},"ג":{"ha":474,"x_min":-33,"x_max":445,"o":"m 339 732 q 265 799 339 799 q 189 786 240 799 l 208 876 q 296 888 256 888 q 365 880 336 888 q 410 854 394 871 q 445 762 445 818 q 431 650 445 715 l 293 0 l 214 0 q 221 70 216 16 q 229 138 226 123 l 222 138 q 163 54 191 82 q 16 -6 103 -6 q -33 1 -9 -6 l 1 99 q 16 94 1 97 q 42 92 32 92 q 184 156 132 92 q 264 349 237 220 l 328 650 q 339 732 339 700 z "},"ד":{"ha":497,"x_min":88,"x_max":572,"o":"m 572 875 l 555 796 q 383 605 414 749 l 254 0 l 152 0 l 281 606 q 306 679 289 646 q 340 731 323 711 q 403 783 379 772 l 414 788 l 88 788 l 106 875 l 572 875 z "},"ה":{"ha":648,"x_min":-3,"x_max":612,"o":"m 395 888 q 585 831 539 888 q 612 731 612 798 q 600 624 612 685 l 467 0 l 363 0 l 496 624 q 506 702 506 672 q 499 751 506 732 q 474 781 492 770 q 368 800 442 800 q 163 782 294 800 l 181 869 q 395 888 298 888 m 100 0 l -3 0 l 114 553 l 217 553 l 100 0 z "},"ו":{"ha":285,"x_min":-2,"x_max":286,"o":"m 100 0 l -2 0 l 184 875 l 286 875 l 100 0 z "},"ז":{"ha":326,"x_min":21,"x_max":398,"o":"m 398 875 l 381 793 q 289 661 324 742 q 258 588 271 618 q 233 506 246 557 q 203 376 216 433 l 123 0 l 21 0 l 101 376 q 181 623 132 518 q 288 788 230 728 l 162 788 l 180 875 l 398 875 z "},"ח":{"ha":648,"x_min":-3,"x_max":612,"o":"m 395 888 q 585 831 539 888 q 612 731 612 798 q 600 624 612 685 l 467 0 l 363 0 l 496 624 q 506 702 506 672 q 499 751 506 732 q 474 781 492 770 q 368 800 442 800 q 268 793 330 800 l 100 0 l -3 0 l 181 869 q 294 883 223 878 q 395 888 365 888 z "},"ט":{"ha":634,"x_min":41,"x_max":599,"o":"m 422 888 q 551 831 507 888 q 599 654 599 770 q 574 437 599 560 q 509 225 549 315 q 422 84 469 135 q 224 -14 330 -14 q 91 48 139 -14 q 41 237 41 112 q 64 437 41 326 l 157 874 l 263 874 l 170 437 q 143 227 143 309 q 189 92 143 126 q 239 75 210 75 q 292 84 269 75 q 340 120 315 94 q 387 185 365 145 q 469 437 434 273 q 496 648 496 564 q 397 800 496 800 q 338 793 370 800 l 357 881 q 422 888 394 888 z "},"י":{"ha":281,"x_min":66,"x_max":288,"o":"m 288 875 l 191 424 q 92 316 132 357 l 66 316 l 185 875 l 288 875 z "},"ך":{"ha":493,"x_min":104,"x_max":442,"o":"m 267 888 q 291 888 267 888 q 354 868 315 888 q 413 812 393 847 q 437 738 433 777 q 442 671 442 698 q 420 492 442 596 l 244 -334 l 140 -334 l 316 492 q 336 650 336 585 q 234 796 336 796 q 104 769 172 796 l 124 865 q 142 870 127 866 q 173 878 158 875 q 267 888 218 888 z "},"כ":{"ha":466,"x_min":-58,"x_max":439,"o":"m 263 888 q 288 888 263 888 q 351 868 312 888 q 410 812 390 847 q 439 667 439 760 q 417 492 439 595 l 389 358 q 361 254 376 302 q 318 155 345 206 q 257 68 291 104 q 173 9 223 33 q 59 -14 123 -14 q -58 5 -5 -14 l -39 98 q -28 95 -37 98 q -10 89 -19 91 q 12 83 -1 86 q 75 76 39 76 q 139 91 111 76 q 189 132 168 106 q 225 186 210 158 q 254 250 241 214 q 283 358 273 310 l 312 492 q 332 650 332 585 q 231 796 332 796 q 101 770 176 796 l 121 865 q 139 870 124 866 q 170 878 155 875 q 263 888 214 888 z "},"ל":{"ha":460,"x_min":66,"x_max":528,"o":"m 226 878 l 528 878 l 509 787 l 305 341 q 168 0 269 250 l 66 0 q 133 165 80 34 q 201 336 185 296 l 410 787 l 104 787 l 162 1061 l 264 1061 l 226 878 z "},"ם":{"ha":648,"x_min":-3,"x_max":616,"o":"m 182 873 q 372 888 296 888 q 486 883 448 888 q 551 866 524 878 q 593 836 578 854 q 616 745 616 804 q 601 630 616 705 l 467 0 l -3 0 l 182 873 m 498 630 q 511 709 511 690 q 508 745 511 729 q 496 771 505 760 q 468 789 487 783 q 380 801 437 801 q 269 794 324 801 l 118 86 l 382 86 l 498 630 z "},"מ":{"ha":633,"x_min":-58,"x_max":595,"o":"m 395 876 q 412 882 395 876 q 464 888 429 888 q 524 877 498 888 q 564 849 549 866 q 595 737 595 814 q 587 646 595 690 q 571 566 578 602 l 451 0 l 194 0 l 212 86 l 367 86 l 469 566 q 489 681 488 656 q 489 724 490 705 q 485 755 489 743 q 473 778 480 767 q 426 799 458 799 q 362 784 393 799 q 311 747 332 769 q 250 668 268 703 l 242 653 l 45 0 l -58 0 l 117 578 q 146 685 141 661 q 153 729 152 709 q 155 765 155 749 q 153 801 155 781 q 149 832 151 821 q 145 858 148 843 q 143 875 143 873 l 245 875 q 255 773 254 829 l 261 773 q 295 811 273 790 q 339 848 317 833 q 395 876 361 863 z "},"ן":{"ha":288,"x_min":-66,"x_max":260,"o":"m 259 875 q 260 824 260 845 q 255 733 260 803 q 235 595 249 663 l 37 -334 l -66 -334 l 132 595 q 151 727 146 662 q 157 812 157 791 q 156 838 157 833 l 155 875 l 259 875 z "},"נ":{"ha":418,"x_min":-67,"x_max":389,"o":"m 154 877 q 241 888 205 888 q 303 881 277 888 q 347 863 330 874 q 389 761 389 834 q 383 693 389 725 q 370 625 378 661 l 286 231 q 256 121 275 179 q 222 32 237 64 l 209 0 l -67 0 l -49 86 l 137 86 q 184 231 165 142 l 277 670 q 285 737 285 711 q 267 781 285 763 q 217 799 248 799 q 135 787 185 799 l 154 877 z "},"ס":{"ha":628,"x_min":35,"x_max":593,"o":"m 409 888 q 543 827 494 888 q 593 640 593 764 q 568 433 593 551 q 503 225 543 315 q 415 84 463 135 q 218 -14 324 -14 q 84 48 132 -14 q 35 235 35 112 q 59 437 35 324 q 233 793 106 663 l 146 788 l 164 876 q 409 888 303 888 m 331 795 q 231 655 268 740 q 165 439 193 570 q 138 229 138 308 q 159 120 138 157 q 191 85 172 95 q 239 75 210 75 q 298 92 269 75 q 357 148 327 109 q 413 260 387 187 q 463 437 440 333 q 490 647 490 566 q 390 799 490 799 l 331 795 z "},"ע":{"ha":602,"x_min":-53,"x_max":674,"o":"m 142 875 l 245 875 l 245 479 l 233 116 q 355 247 304 157 q 450 479 406 336 q 515 690 473 553 q 571 874 556 827 l 674 874 l 555 488 q 475 267 507 334 q 270 39 399 104 q 134 -3 209 9 q -53 -35 104 -8 l -34 52 q 142 83 99 73 l 142 875 z "},"ף":{"ha":640,"x_min":77,"x_max":581,"o":"m 253 296 q 104 367 149 296 q 77 479 77 410 q 88 581 77 525 q 204 804 118 720 q 397 888 291 888 q 531 827 483 888 q 581 640 581 763 q 556 437 581 551 l 392 -334 l 289 -334 l 453 437 q 479 628 479 560 q 467 730 479 696 q 378 799 444 799 q 306 776 340 799 q 248 719 271 753 q 192 593 205 651 q 180 497 180 534 q 276 378 180 383 q 291 376 280 378 l 255 296 q 253 296 254 296 z "},"פ":{"ha":612,"x_min":28,"x_max":577,"o":"m 98 373 q 73 470 73 415 q 85 581 73 525 q 201 805 115 721 q 394 888 288 888 q 528 827 479 888 q 577 640 577 763 q 554 445 577 551 q 500 261 532 339 q 434 133 469 183 q 357 49 399 82 q 195 -14 281 -14 q 49 -1 113 -14 l 28 2 l 47 92 q 214 76 134 76 q 447 437 370 76 q 474 648 474 566 q 375 799 474 799 q 302 776 337 799 q 245 718 268 753 q 186 581 201 647 q 176 505 176 528 q 176 475 176 481 q 202 405 178 431 q 273 378 227 380 l 288 377 l 252 296 l 238 297 q 98 373 140 300 z "},"ץ":{"ha":496,"x_min":-21,"x_max":549,"o":"m 549 875 l 484 566 q 408 401 465 475 q 330 335 378 362 q 219 299 281 308 l 85 -334 l -21 -334 l 130 378 l 101 875 l 214 875 l 237 382 q 329 444 294 400 q 382 566 365 488 l 447 875 l 549 875 z "},"צ":{"ha":568,"x_min":-52,"x_max":617,"o":"m 240 875 l 326 410 q 451 671 388 466 l 514 874 l 617 874 l 572 728 q 477 479 523 570 q 353 326 431 389 l 425 54 l 414 0 l -52 0 l -33 86 l 197 86 l 315 83 l 243 326 l 132 875 l 240 875 z "},"ק":{"ha":624,"x_min":-64,"x_max":677,"o":"m 661 799 l 460 385 q 326 97 348 154 q 298 15 304 39 l 295 0 l 194 0 l 197 15 q 214 71 203 45 q 230 113 224 96 q 248 154 237 129 q 267 196 260 179 q 289 242 275 212 q 311 287 303 272 q 335 336 318 302 q 421 517 351 370 q 551 788 490 663 l 173 788 l 191 875 l 677 875 l 661 799 m 38 -334 l -64 -334 l 116 517 l 218 517 l 38 -334 z "},"ר":{"ha":488,"x_min":94,"x_max":454,"o":"m 113 880 q 257 888 191 888 q 365 876 322 888 q 454 753 454 849 q 439 624 454 703 l 307 0 l 203 0 l 336 624 q 347 715 347 680 q 336 766 347 750 q 222 800 315 800 q 94 792 178 800 l 113 880 z "},"ש":{"ha":765,"x_min":23,"x_max":816,"o":"m 152 0 l 23 0 l 136 875 l 235 875 l 173 393 q 293 476 248 418 q 373 651 338 534 l 440 875 l 537 875 l 470 652 q 423 525 448 578 q 363 427 399 473 q 163 309 294 340 l 134 87 l 170 87 q 431 199 317 87 q 602 493 546 311 l 718 875 l 816 875 l 699 493 q 489 132 628 262 q 285 18 401 50 q 152 0 222 0 z "},"ת":{"ha":643,"x_min":-79,"x_max":605,"o":"m 229 879 q 243 881 229 879 q 305 885 257 882 q 407 888 353 888 q 505 873 462 888 q 570 836 548 859 q 605 722 605 797 q 592 623 605 685 l 459 0 l 357 0 l 490 623 q 500 699 500 669 q 493 749 500 730 q 468 780 486 769 q 371 800 437 800 q 285 797 340 800 l 166 239 q 99 49 138 102 q -18 -4 61 -4 q -79 5 -43 -4 l -60 94 q -25 88 -29 88 q 23 110 5 88 q 50 174 41 131 l 180 787 q 120 780 163 785 l 138 867 q 170 871 140 867 q 229 879 200 876 z "},"׳":{"ha":237,"x_min":52,"x_max":306,"o":"m 300 875 l 306 860 q 125 549 236 718 l 52 549 q 189 875 136 720 l 300 875 z "},"״":{"ha":463,"x_min":57,"x_max":538,"o":"m 306 875 l 312 860 q 132 549 242 718 l 57 549 q 195 875 141 721 l 306 875 m 532 875 l 538 860 q 357 549 467 717 l 283 549 q 420 875 367 718 l 532 875 z "},"–":{"ha":683,"x_min":44,"x_max":639,"o":"m 621 332 l 44 332 l 62 417 l 639 417 l 621 332 z "},"—":{"ha":1284,"x_min":44,"x_max":1240,"o":"m 1222 332 l 44 332 l 62 417 l 1240 417 l 1222 332 z "},"‘":{"ha":237,"x_min":-7,"x_max":247,"o":"m 174 991 l 247 991 q 110 666 157 806 l -1 666 l -7 682 q 174 991 71 840 z "},"’":{"ha":237,"x_min":-11,"x_max":243,"o":"m 237 991 l 243 977 q 63 666 174 834 l -11 666 q 126 991 73 837 l 237 991 z "},"‚":{"ha":315,"x_min":12,"x_max":267,"o":"m 261 146 l 267 131 q 86 -179 192 -21 l 12 -179 q 149 146 98 -6 l 261 146 z "},"“":{"ha":463,"x_min":-7,"x_max":473,"o":"m 174 991 l 247 991 q 110 666 157 806 l -1 666 l -7 682 q 174 991 71 840 m 399 991 l 473 991 q 336 666 386 813 l 224 666 l 218 682 q 399 991 297 838 z "},"”":{"ha":463,"x_min":-11,"x_max":470,"o":"m 238 991 l 244 977 q 64 666 174 835 l -11 666 q 127 991 73 838 l 238 991 m 464 991 l 470 977 q 289 666 399 833 l 216 666 q 353 991 299 835 l 464 991 z "},"„":{"ha":520,"x_min":-9,"x_max":472,"o":"m 240 146 l 246 130 q 66 -179 173 -18 l -9 -179 q 129 146 76 -6 l 240 146 m 465 146 l 472 130 q 291 -179 403 -9 l 217 -179 q 355 146 305 5 l 465 146 z "},"†":{"ha":631,"x_min":116,"x_max":604,"o":"m 392 768 l 604 783 l 584 690 l 378 701 l 252 0 l 140 0 l 312 701 l 116 690 l 136 783 l 326 768 l 364 1055 l 476 1055 l 392 768 z "},"‡":{"ha":631,"x_min":18,"x_max":612,"o":"m 401 798 l 612 812 l 592 720 l 387 731 l 359 533 l 300 325 l 511 336 l 491 243 l 286 258 l 254 0 l 142 0 l 220 258 l 18 243 l 38 336 l 234 325 l 263 533 l 321 731 l 119 720 l 139 812 l 335 798 l 366 1055 l 478 1055 l 401 798 z "},"•":{"ha":517,"x_min":92,"x_max":426,"o":"m 98 507 q 168 640 117 595 q 297 686 219 686 q 406 640 374 686 q 426 566 426 611 q 419 507 426 540 q 349 375 401 421 q 221 328 298 328 q 112 374 144 328 q 92 450 92 404 q 98 507 92 476 z "},"…":{"ha":947,"x_min":14,"x_max":797,"o":"m 108 157 q 165 102 165 157 q 162 72 165 89 q 129 8 153 29 q 71 -14 105 -14 q 14 41 14 -14 q 18 72 14 55 q 108 157 35 157 m 424 157 q 473 136 458 157 q 481 105 481 123 q 478 72 481 88 q 445 8 469 30 q 387 -14 420 -14 q 330 41 330 -14 q 333 72 330 55 q 424 157 351 157 m 739 157 q 797 102 797 157 q 793 72 797 89 q 760 8 785 30 q 703 -14 736 -14 q 645 41 645 -14 q 648 72 645 55 q 739 157 666 157 z "},"‰":{"ha":1274,"x_min":79,"x_max":1183,"o":"m 189 383 q 79 541 79 383 q 98 694 79 605 q 187 926 131 847 q 321 1006 243 1006 q 433 848 433 1006 q 414 696 433 784 q 324 464 382 545 q 189 383 265 383 m 772 991 l 210 0 l 122 0 l 685 991 l 772 991 m 165 538 q 207 464 165 464 q 271 520 243 464 q 322 684 300 576 q 345 847 345 791 q 304 927 345 927 q 240 871 268 927 q 189 706 213 816 q 165 538 165 595 m 572 -13 q 464 144 464 -13 q 483 298 464 209 q 705 608 549 608 q 817 450 817 608 q 798 298 817 387 q 708 67 766 148 q 572 -13 649 -13 m 1071 608 q 1183 450 1183 608 q 1164 298 1183 387 q 1073 68 1132 149 q 939 -13 1015 -13 q 829 140 829 -13 q 849 298 829 205 q 1071 608 915 608 m 549 142 q 591 67 549 67 q 655 124 627 67 q 707 287 684 181 q 729 448 729 393 q 687 530 729 530 q 624 474 651 530 q 573 309 597 418 q 549 142 549 199 m 916 141 q 957 67 916 67 q 1022 123 994 67 q 1072 287 1050 180 q 1095 449 1095 393 q 1053 530 1095 530 q 990 474 1018 530 q 939 308 963 418 q 916 141 916 198 z "},"‹":{"ha":379,"x_min":52,"x_max":375,"o":"m 375 599 l 176 365 l 275 130 l 195 89 l 52 355 l 56 373 l 311 640 l 375 599 z "},"›":{"ha":379,"x_min":4,"x_max":327,"o":"m 327 373 l 323 355 l 68 89 l 4 130 l 202 365 l 104 599 l 184 640 l 327 373 z "},"⁄":{"ha":166,"x_min":-323,"x_max":489,"o":"m -236 0 l -323 0 l 401 991 l 489 991 l -236 0 z "},"₪":{"ha":869,"x_min":3,"x_max":876,"o":"m 415 875 q 551 854 492 875 q 592 828 576 846 q 618 796 608 810 q 632 755 629 783 q 636 702 636 716 q 631 656 636 688 q 619 587 627 624 q 611 549 611 550 l 542 223 l 442 223 l 511 549 q 533 671 532 648 q 533 710 534 694 q 528 735 532 727 q 517 754 524 744 q 499 768 510 764 q 473 777 488 772 q 396 784 449 784 l 272 784 l 105 0 l 3 0 l 189 875 l 415 875 m 316 0 l 191 0 l 329 651 l 431 651 l 312 90 l 335 90 q 541 153 464 90 q 654 334 612 210 q 689 467 673 391 l 776 875 l 876 875 l 789 467 q 766 372 777 414 q 735 280 755 330 q 691 191 715 229 q 632 116 668 153 q 552 54 595 78 q 316 0 454 0 z "},"€":{"ha":585,"x_min":-6,"x_max":656,"o":"m 503 1007 q 656 958 592 1007 l 594 870 q 486 909 541 909 q 252 620 340 909 l 465 620 l 449 545 l 230 545 l 218 496 l 205 426 l 399 426 l 383 352 l 195 352 q 190 271 190 308 q 318 85 190 85 q 467 122 393 85 l 445 22 q 294 -14 374 -14 q 81 254 81 -14 q 87 352 81 299 l -6 352 l 9 426 l 98 426 q 110 486 100 438 l 114 503 q 123 545 117 517 l 35 545 l 51 620 l 144 620 q 295 903 199 799 q 503 1007 392 1007 z "},"™":{"ha":966,"x_min":47,"x_max":927,"o":"m 395 924 l 257 924 l 167 503 l 94 503 l 184 924 l 47 924 l 61 991 l 410 991 l 395 924 m 823 503 l 749 503 l 810 785 l 837 897 l 832 897 l 616 503 l 550 503 l 507 899 l 501 899 l 477 765 l 420 503 l 350 503 l 454 991 l 565 991 l 607 607 l 817 991 l 927 991 l 823 503 z "},"ﬁ":{"ha":629,"x_min":-6,"x_max":637,"o":"m 392 1063 q 490 1041 447 1063 l 441 956 q 378 972 410 972 q 311 934 336 971 q 267 802 286 897 l 254 742 l 372 742 l 354 656 l 235 656 l 96 0 l -6 0 l 134 656 l 41 656 l 53 711 q 153 747 71 718 l 165 804 q 247 1001 194 939 q 392 1063 300 1063 m 541 1000 q 591 1019 563 1019 q 630 1000 618 1019 q 637 972 637 987 q 606 890 637 919 q 558 869 586 869 q 518 890 531 869 q 510 917 510 903 q 541 1000 510 970 m 424 0 l 321 0 l 479 743 l 582 743 l 424 0 z "},"ﬂ":{"ha":627,"x_min":-6,"x_max":648,"o":"m 392 1063 q 490 1041 447 1063 l 441 956 q 378 972 410 972 q 311 934 336 971 q 267 802 286 897 l 254 742 l 372 742 l 354 656 l 235 656 l 96 0 l -6 0 l 134 656 l 41 656 l 53 711 q 153 747 71 718 l 165 804 q 247 1001 194 939 q 392 1063 300 1063 m 423 0 l 320 0 l 545 1055 l 648 1055 l 423 0 z "},"שׁ":{"ha":765,"x_min":23,"x_max":854,"o":"m 814 1046 q 854 1008 854 1046 q 852 987 854 998 q 790 928 840 928 q 752 965 752 928 q 755 987 752 975 q 814 1046 767 1046 m 152 0 l 23 0 l 136 875 l 235 875 l 173 393 q 293 476 248 418 q 373 651 338 534 l 440 875 l 537 875 l 470 652 q 423 525 448 578 q 363 427 399 473 q 163 309 294 340 l 134 87 l 170 87 q 431 199 317 87 q 602 493 546 311 l 718 875 l 816 875 l 699 493 q 489 132 628 262 q 285 18 401 50 q 152 0 222 0 z "},"שׂ":{"ha":765,"x_min":23,"x_max":816,"o":"m 199 1032 q 239 994 239 1032 q 236 973 239 985 q 174 915 224 915 q 136 951 136 915 q 139 973 136 961 q 199 1032 151 1032 m 152 0 l 23 0 l 136 875 l 235 875 l 173 393 q 293 476 248 418 q 373 651 338 534 l 440 875 l 537 875 l 470 652 q 423 525 448 578 q 363 427 399 473 q 163 309 294 340 l 134 87 l 170 87 q 431 199 317 87 q 602 493 546 311 l 718 875 l 816 875 l 699 493 q 489 132 628 262 q 285 18 401 50 q 152 0 222 0 z "},"שּׁ":{"ha":765,"x_min":23,"x_max":854,"o":"m 814 1046 q 854 1008 854 1046 q 852 987 854 998 q 790 928 840 928 q 752 965 752 928 q 755 987 752 975 q 814 1046 767 1046 m 152 0 l 23 0 l 136 875 l 235 875 l 173 393 q 293 476 248 418 q 373 651 338 534 l 440 875 l 537 875 l 470 652 q 423 525 448 578 q 363 427 399 473 q 163 309 294 340 l 134 87 l 170 87 q 431 199 317 87 q 602 493 546 311 l 718 875 l 816 875 l 699 493 q 489 132 628 262 q 285 18 401 50 q 152 0 222 0 m 361 353 q 401 315 401 353 q 399 294 401 305 q 337 235 387 235 q 299 272 299 235 q 302 294 299 281 q 361 353 314 353 z "},"שּׂ":{"ha":765,"x_min":23,"x_max":816,"o":"m 199 1032 q 239 994 239 1032 q 236 973 239 985 q 174 915 224 915 q 136 951 136 915 q 139 973 136 961 q 199 1032 151 1032 m 152 0 l 23 0 l 136 875 l 235 875 l 173 393 q 293 476 248 418 q 373 651 338 534 l 440 875 l 537 875 l 470 652 q 423 525 448 578 q 363 427 399 473 q 163 309 294 340 l 134 87 l 170 87 q 431 199 317 87 q 602 493 546 311 l 718 875 l 816 875 l 699 493 q 489 132 628 262 q 285 18 401 50 q 152 0 222 0 m 361 353 q 401 315 401 353 q 399 294 401 305 q 337 235 387 235 q 299 272 299 235 q 302 294 299 281 q 361 353 314 353 z "},"אַ":{"ha":583,"x_min":-41,"x_max":624,"o":"m 624 875 l 557 558 q 537 485 548 517 q 506 416 526 454 q 374 303 465 338 q 408 149 386 250 q 441 0 431 48 l 325 0 l 228 487 q 161 411 185 460 q 120 283 136 362 l 60 0 l -41 0 l 24 309 q 75 453 43 391 q 208 572 119 534 l 139 875 l 254 875 l 317 545 l 354 388 q 421 458 397 413 q 461 584 444 503 l 523 875 l 624 875 m 294 -209 l 16 -209 l 28 -153 l 306 -153 l 294 -209 z "},"אָ":{"ha":583,"x_min":-41,"x_max":624,"o":"m 624 875 l 557 558 q 537 485 548 517 q 506 416 526 454 q 374 303 465 338 q 408 149 386 250 q 441 0 431 48 l 325 0 l 228 487 q 161 411 185 460 q 120 283 136 362 l 60 0 l -41 0 l 24 309 q 75 453 43 391 q 208 572 119 534 l 139 875 l 254 875 l 317 545 l 354 388 q 421 458 397 413 q 461 584 444 503 l 523 875 l 624 875 m 291 -209 l 180 -209 l 146 -366 l 91 -366 l 124 -209 l 13 -209 l 24 -153 l 302 -153 l 291 -209 z "},"אּ":{"ha":583,"x_min":-41,"x_max":624,"o":"m 624 875 l 557 558 q 537 485 548 517 q 506 416 526 454 q 374 303 465 338 q 408 149 386 250 q 441 0 431 48 l 325 0 l 228 487 q 161 411 185 460 q 120 283 136 362 l 60 0 l -41 0 l 24 309 q 75 453 43 391 q 208 572 119 534 l 139 875 l 254 875 l 317 545 l 354 388 q 421 458 397 413 q 461 584 444 503 l 523 875 l 624 875 m 193 222 q 233 184 233 222 q 231 163 233 174 q 169 104 218 104 q 131 141 131 104 q 134 163 131 151 q 193 222 146 222 z "},"בּ":{"ha":549,"x_min":-31,"x_max":511,"o":"m 156 880 q 300 888 230 888 q 411 876 370 888 q 474 843 452 864 q 511 732 511 808 q 496 623 511 690 l 382 86 l 452 86 l 433 0 l -31 0 l -12 86 l 279 86 l 393 623 q 404 701 404 671 q 397 750 404 731 q 375 780 391 769 q 283 800 346 800 q 156 793 209 800 l 137 791 l 156 880 m 210 496 q 250 458 250 496 q 247 437 250 449 q 185 379 235 379 q 147 416 147 379 q 150 437 147 425 q 210 496 162 496 z "},"גּ":{"ha":474,"x_min":-33,"x_max":445,"o":"m 339 732 q 265 799 339 799 q 189 786 240 799 l 208 876 q 296 888 256 888 q 365 880 336 888 q 410 854 394 871 q 445 762 445 818 q 431 650 445 715 l 293 0 l 214 0 q 221 70 216 16 q 229 138 226 123 l 222 138 q 163 54 191 82 q 16 -6 103 -6 q -33 1 -9 -6 l 1 99 q 16 94 1 97 q 42 92 32 92 q 184 156 132 92 q 264 349 237 220 l 328 650 q 339 732 339 700 m 179 496 q 219 458 219 496 q 216 437 219 449 q 155 379 204 379 q 117 416 117 379 q 119 437 117 425 q 179 496 132 496 z "},"דּ":{"ha":497,"x_min":88,"x_max":572,"o":"m 572 875 l 555 796 q 383 605 414 749 l 254 0 l 152 0 l 281 606 q 306 679 289 646 q 340 731 323 711 q 403 783 379 772 l 414 788 l 88 788 l 106 875 l 572 875 m 153 496 q 193 458 193 496 q 190 437 193 449 q 128 379 178 379 q 90 416 90 379 q 93 437 90 425 q 153 496 105 496 z "},"הּ":{"ha":648,"x_min":-3,"x_max":612,"o":"m 395 888 q 585 831 539 888 q 612 731 612 798 q 600 624 612 685 l 467 0 l 363 0 l 496 624 q 506 702 506 672 q 499 751 506 732 q 474 781 492 770 q 368 800 442 800 q 163 782 294 800 l 181 869 q 395 888 298 888 m -3 0 l 114 553 l 217 553 l 100 0 l -3 0 m 335 496 q 375 458 375 496 q 372 437 375 449 q 311 379 360 379 q 273 416 273 379 q 275 437 273 425 q 335 496 288 496 z "},"וּ":{"ha":285,"x_min":-60,"x_max":286,"o":"m -2 0 l 184 875 l 286 875 l 100 0 l -2 0 m 2 496 q 42 458 42 496 q 39 437 42 449 q -22 379 27 379 q -60 416 -60 379 q -58 437 -60 425 q 2 496 -45 496 z "},"זּ":{"ha":326,"x_min":-32,"x_max":398,"o":"m 398 875 l 381 793 q 289 661 324 742 q 258 588 271 618 q 233 506 246 557 q 203 376 216 433 l 123 0 l 21 0 l 101 376 q 181 623 132 518 q 288 788 230 728 l 162 788 l 180 875 l 398 875 m 31 496 q 71 458 71 496 q 68 437 71 449 q 6 379 56 379 q -32 416 -32 379 q -29 437 -32 425 q 31 496 -17 496 z "},"טּ":{"ha":634,"x_min":41,"x_max":599,"o":"m 422 888 q 551 831 507 888 q 599 654 599 770 q 574 437 599 560 q 509 225 549 315 q 422 84 469 135 q 224 -14 330 -14 q 91 48 139 -14 q 41 237 41 112 q 64 437 41 326 l 157 874 l 263 874 l 170 437 q 143 227 143 309 q 189 92 143 126 q 239 75 210 75 q 292 84 269 75 q 340 120 315 94 q 387 185 365 145 q 469 437 434 273 q 496 648 496 564 q 397 800 496 800 q 338 793 370 800 l 357 881 q 422 888 394 888 m 330 496 q 370 458 370 496 q 367 437 370 449 q 305 379 355 379 q 267 416 267 379 q 270 437 267 425 q 330 496 282 496 z "},"יּ":{"ha":281,"x_min":3,"x_max":288,"o":"m 288 875 l 191 424 q 92 316 132 357 l 66 316 l 185 875 l 288 875 m 66 644 q 106 606 106 644 q 103 585 106 597 q 41 527 91 527 q 3 564 3 527 q 6 585 3 573 q 66 644 18 644 z "},"ךּ":{"ha":493,"x_min":104,"x_max":442,"o":"m 267 888 q 291 888 267 888 q 354 868 315 888 q 413 812 393 847 q 437 738 433 777 q 442 671 442 698 q 420 492 442 596 l 244 -334 l 140 -334 l 316 492 q 336 650 336 585 q 234 796 336 796 q 104 769 172 796 l 124 865 q 142 870 127 866 q 173 878 158 875 q 267 888 218 888 m 173 496 q 213 458 213 496 q 210 437 213 449 q 149 379 198 379 q 111 416 111 379 q 113 437 111 425 q 173 496 125 496 z "},"כּ":{"ha":466,"x_min":-58,"x_max":439,"o":"m 263 888 q 288 888 263 888 q 351 868 312 888 q 410 812 390 847 q 439 667 439 760 q 417 492 439 595 l 389 358 q 361 254 376 302 q 318 155 345 206 q 257 68 291 104 q 173 9 223 33 q 59 -14 123 -14 q -58 5 -5 -14 l -39 98 q -28 95 -37 98 q -10 89 -19 91 q 12 83 -1 86 q 75 76 39 76 q 139 91 111 76 q 189 132 168 106 q 225 186 210 158 q 254 250 241 214 q 283 358 273 310 l 312 492 q 332 650 332 585 q 231 796 332 796 q 101 770 176 796 l 121 865 q 139 870 124 866 q 170 878 155 875 q 263 888 214 888 m 157 496 q 197 458 197 496 q 194 437 197 449 q 132 379 182 379 q 94 416 94 379 q 97 437 94 425 q 157 496 109 496 z "},"לּ":{"ha":460,"x_min":26,"x_max":528,"o":"m 528 878 l 509 787 l 305 341 q 168 0 269 250 l 66 0 q 133 165 80 34 q 201 336 185 296 l 410 787 l 104 787 l 162 1061 l 264 1061 l 226 878 l 528 878 m 89 496 q 129 458 129 496 q 126 437 129 449 q 64 379 114 379 q 26 416 26 379 q 29 437 26 425 q 89 496 41 496 z "},"מּ":{"ha":633,"x_min":-58,"x_max":595,"o":"m 395 876 q 412 882 395 876 q 464 888 429 888 q 524 877 498 888 q 564 849 549 866 q 595 737 595 814 q 587 646 595 690 q 571 566 578 602 l 451 0 l 194 0 l 212 86 l 367 86 l 469 566 q 489 681 488 656 q 489 724 490 705 q 485 755 489 743 q 473 778 480 767 q 426 799 458 799 q 362 784 393 799 q 311 747 332 769 q 250 668 268 703 l 242 653 l 45 0 l -58 0 l 117 578 q 146 685 141 661 q 153 729 152 709 q 155 765 155 749 q 153 801 155 781 q 149 832 151 821 q 145 858 148 843 q 143 875 143 873 l 245 875 q 255 773 254 829 l 261 773 q 295 811 273 790 q 339 848 317 833 q 395 876 361 863 m 328 496 q 368 458 368 496 q 365 437 368 449 q 303 379 353 379 q 265 416 265 379 q 268 437 265 425 q 328 496 280 496 z "},"נּ":{"ha":418,"x_min":-67,"x_max":389,"o":"m 154 877 q 241 888 205 888 q 303 881 277 888 q 347 863 330 874 q 389 761 389 834 q 383 693 389 725 q 370 625 378 661 l 286 231 q 256 121 275 179 q 222 32 237 64 l 209 0 l -67 0 l -49 86 l 137 86 q 184 231 165 142 l 277 670 q 285 737 285 711 q 267 781 285 763 q 217 799 248 799 q 135 787 185 799 l 154 877 m 138 496 q 178 458 178 496 q 175 437 178 449 q 113 379 163 379 q 75 416 75 379 q 78 437 75 425 q 138 496 90 496 z "},"סּ":{"ha":628,"x_min":35,"x_max":593,"o":"m 409 888 q 543 827 494 888 q 593 640 593 764 q 568 433 593 551 q 503 225 543 315 q 415 84 463 135 q 218 -14 324 -14 q 84 48 132 -14 q 35 235 35 112 q 59 437 35 324 q 233 793 106 663 l 146 788 l 164 876 q 409 888 303 888 m 331 795 q 231 655 268 740 q 165 439 193 570 q 138 229 138 308 q 159 120 138 157 q 191 85 172 95 q 239 75 210 75 q 298 92 269 75 q 357 148 327 109 q 413 260 387 187 q 463 437 440 333 q 490 647 490 566 q 390 799 490 799 l 331 795 m 326 496 q 366 458 366 496 q 363 437 366 449 q 302 379 351 379 q 264 416 264 379 q 267 437 264 425 q 326 496 279 496 z "},"ףּ":{"ha":640,"x_min":77,"x_max":581,"o":"m 253 296 q 104 367 149 296 q 77 479 77 410 q 88 581 77 525 q 204 804 118 720 q 397 888 291 888 q 531 827 483 888 q 581 640 581 763 q 556 437 581 551 l 392 -334 l 289 -334 l 453 437 q 479 628 479 560 q 467 730 479 696 q 378 799 444 799 q 306 776 340 799 q 248 719 271 753 q 192 593 205 651 q 180 497 180 534 q 276 378 180 383 q 291 376 280 378 l 255 296 q 253 296 254 296 m 368 651 q 408 613 408 651 q 406 592 408 604 q 344 534 393 534 q 306 570 306 534 q 309 592 306 580 q 368 651 321 651 z "},"פּ":{"ha":612,"x_min":28,"x_max":577,"o":"m 98 373 q 73 470 73 415 q 85 581 73 525 q 201 805 115 721 q 394 888 288 888 q 528 827 479 888 q 577 640 577 763 q 554 445 577 551 q 500 261 532 339 q 434 133 469 183 q 357 49 399 82 q 195 -14 281 -14 q 49 -1 113 -14 l 28 2 l 47 92 q 214 76 134 76 q 447 437 370 76 q 474 648 474 566 q 375 799 474 799 q 302 776 337 799 q 245 718 268 753 q 186 581 201 647 q 176 505 176 528 q 176 475 176 481 q 202 405 178 431 q 273 378 227 380 l 288 377 l 252 296 l 238 297 q 98 373 140 300 m 351 651 q 391 613 391 651 q 389 592 391 604 q 327 534 376 534 q 289 570 289 534 q 292 592 289 580 q 351 651 304 651 z "},"צּ":{"ha":568,"x_min":-52,"x_max":617,"o":"m 240 875 l 326 410 q 451 671 388 466 l 514 874 l 617 874 l 572 728 q 477 479 523 570 q 353 326 431 389 l 425 54 l 414 0 l -52 0 l -33 86 l 197 86 l 315 83 l 243 326 l 132 875 l 240 875 m 113 439 q 153 401 153 439 q 151 380 153 391 q 89 321 138 321 q 51 358 51 321 q 54 380 51 368 q 113 439 66 439 z "},"קּ":{"ha":624,"x_min":-64,"x_max":677,"o":"m 661 799 l 460 385 q 326 97 348 154 q 298 15 304 39 l 295 0 l 194 0 l 197 15 q 214 71 203 45 q 230 113 224 96 q 248 154 237 129 q 267 196 260 179 q 289 242 275 212 q 311 287 303 272 q 335 336 318 302 q 421 517 351 370 q 551 788 490 663 l 173 788 l 191 875 l 677 875 l 661 799 m 302 522 q 342 484 342 522 q 339 463 342 475 q 277 405 327 405 q 239 441 239 405 q 242 463 239 451 q 302 522 254 522 m -64 -334 l 116 517 l 218 517 l 38 -334 l -64 -334 z "},"רּ":{"ha":488,"x_min":94,"x_max":454,"o":"m 113 880 q 257 888 191 888 q 365 876 322 888 q 454 753 454 849 q 439 624 454 703 l 307 0 l 203 0 l 336 624 q 347 715 347 680 q 336 766 347 750 q 222 800 315 800 q 94 792 178 800 l 113 880 m 178 496 q 218 458 218 496 q 216 437 218 449 q 154 379 203 379 q 116 416 116 379 q 119 437 116 425 q 178 496 131 496 z "},"שּ":{"ha":765,"x_min":23,"x_max":816,"o":"m 152 0 l 23 0 l 136 875 l 235 875 l 173 393 q 293 476 248 418 q 373 651 338 534 l 440 875 l 537 875 l 470 652 q 423 525 448 578 q 363 427 399 473 q 163 309 294 340 l 134 87 l 170 87 q 431 199 317 87 q 602 493 546 311 l 718 875 l 816 875 l 699 493 q 489 132 628 262 q 285 18 401 50 q 152 0 222 0 m 361 353 q 401 315 401 353 q 399 294 401 305 q 337 235 387 235 q 299 272 299 235 q 302 294 299 281 q 361 353 314 353 z "},"תּ":{"ha":643,"x_min":-79,"x_max":605,"o":"m 229 879 q 243 881 229 879 q 305 885 257 882 q 407 888 353 888 q 505 873 462 888 q 570 836 548 859 q 605 722 605 797 q 592 623 605 685 l 459 0 l 357 0 l 490 623 q 500 699 500 669 q 493 749 500 730 q 468 780 486 769 q 371 800 437 800 q 285 797 340 800 l 166 239 q 99 49 138 102 q -18 -4 61 -4 q -79 5 -43 -4 l -60 94 q -25 88 -29 88 q 23 110 5 88 q 50 174 41 131 l 180 787 q 120 780 163 785 l 138 867 q 170 871 140 867 q 229 879 200 876 m 332 496 q 372 458 372 496 q 370 437 372 449 q 308 379 357 379 q 270 416 270 379 q 273 437 270 425 q 332 496 285 496 z "},"וֹ":{"ha":285,"x_min":-2,"x_max":286,"o":"m 244 1046 q 284 1008 284 1046 q 281 987 284 998 q 220 928 269 928 q 182 965 182 928 q 184 987 182 975 q 244 1046 197 1046 m -2 0 l 184 875 l 286 875 l 100 0 l -2 0 z "}," ":{"ha":288,"x_min":0,"x_max":0,"o":""}}}
